<mxfile host="app.diagrams.net" agent="Mozilla/5.0 (Macintosh; Intel Mac OS X 10_15_7) AppleWebKit/537.36 (KHTML, like Gecko) Chrome/134.0.0.0 Safari/537.36 Edg/134.0.0.0" version="26.0.14">
  <diagram name="第 1 页" id="ZbLFQRYm4HaHy9Gzj8pk">
    <mxGraphModel dx="2328" dy="866" grid="1" gridSize="10" guides="1" tooltips="1" connect="1" arrows="1" fold="1" page="1" pageScale="1" pageWidth="827" pageHeight="1169" math="0" shadow="0">
      <root>
        <mxCell id="0" />
        <mxCell id="1" parent="0" />
        <mxCell id="txd-k2RUHVKIXWnAUGUS-61" value="" style="rounded=0;whiteSpace=wrap;html=1;sketch=1;curveFitting=1;jiggle=2;" vertex="1" parent="1">
          <mxGeometry x="-70" y="517.5" width="302" height="152.5" as="geometry" />
        </mxCell>
        <mxCell id="txd-k2RUHVKIXWnAUGUS-17" value="" style="ellipse;whiteSpace=wrap;html=1;sketch=1;curveFitting=1;jiggle=2;" vertex="1" parent="1">
          <mxGeometry x="434" y="508" width="80" height="50" as="geometry" />
        </mxCell>
        <mxCell id="txd-k2RUHVKIXWnAUGUS-14" value="" style="rounded=0;whiteSpace=wrap;html=1;sketch=1;curveFitting=1;jiggle=2;shadow=1;" vertex="1" parent="1">
          <mxGeometry x="519" y="440" width="280" height="60" as="geometry" />
        </mxCell>
        <mxCell id="txd-k2RUHVKIXWnAUGUS-1" value="rule" style="aspect=fixed;sketch=0;html=1;dashed=0;whitespace=wrap;verticalLabelPosition=bottom;verticalAlign=top;fillColor=#2875E2;strokeColor=#ffffff;points=[[0.005,0.63,0],[0.1,0.2,0],[0.9,0.2,0],[0.5,0,0],[0.995,0.63,0],[0.72,0.99,0],[0.5,1,0],[0.28,0.99,0]];shape=mxgraph.kubernetes.icon2;prIcon=control_plane;fontFamily=Comic Sans MS;" vertex="1" parent="1">
          <mxGeometry x="351" y="330" width="125" height="120" as="geometry" />
        </mxCell>
        <mxCell id="txd-k2RUHVKIXWnAUGUS-2" value="" style="shape=cylinder3;whiteSpace=wrap;html=1;boundedLbl=1;backgroundOutline=1;size=15;sketch=1;curveFitting=1;jiggle=2;fontFamily=Comic Sans MS;" vertex="1" parent="1">
          <mxGeometry x="319" y="600" width="184" height="140" as="geometry" />
        </mxCell>
        <mxCell id="txd-k2RUHVKIXWnAUGUS-3" value="domains" style="text;html=1;align=center;verticalAlign=middle;resizable=0;points=[];autosize=1;strokeColor=none;fillColor=none;fontFamily=Comic Sans MS;" vertex="1" parent="1">
          <mxGeometry x="371" y="600" width="70" height="30" as="geometry" />
        </mxCell>
        <mxCell id="txd-k2RUHVKIXWnAUGUS-5" value="&lt;div data-page-id=&quot;OuCod3JaToS2MNxbDrpcDMo3nlb&quot; data-lark-html-role=&quot;root&quot; data-docx-has-block-data=&quot;false&quot;&gt;&lt;div class=&quot;ace-line ace-line old-record-id-KdEMdsbRtoRM4GxeSNYcZbPdnse&quot;&gt;Traceable Path Structure&lt;/div&gt;&lt;/div&gt;&lt;span data-lark-record-data=&quot;{&amp;quot;rootId&amp;quot;:&amp;quot;OuCod3JaToS2MNxbDrpcDMo3nlb&amp;quot;,&amp;quot;text&amp;quot;:{&amp;quot;initialAttributedTexts&amp;quot;:{&amp;quot;text&amp;quot;:{&amp;quot;0&amp;quot;:&amp;quot;Traceable Path Structure&amp;quot;},&amp;quot;attribs&amp;quot;:{&amp;quot;0&amp;quot;:&amp;quot;*0+o&amp;quot;}},&amp;quot;apool&amp;quot;:{&amp;quot;numToAttrib&amp;quot;:{&amp;quot;0&amp;quot;:[&amp;quot;author&amp;quot;,&amp;quot;7258204363011915779&amp;quot;]},&amp;quot;nextNum&amp;quot;:1}},&amp;quot;type&amp;quot;:&amp;quot;text&amp;quot;,&amp;quot;referenceRecordMap&amp;quot;:{},&amp;quot;extra&amp;quot;:{&amp;quot;channel&amp;quot;:&amp;quot;saas&amp;quot;,&amp;quot;isEqualBlockSelection&amp;quot;:true,&amp;quot;pasteRandomId&amp;quot;:&amp;quot;c51f9982-a21a-4b14-8fc9-95f94494ed97&amp;quot;,&amp;quot;mention_page_title&amp;quot;:{},&amp;quot;external_mention_url&amp;quot;:{}},&amp;quot;isKeepQuoteContainer&amp;quot;:false,&amp;quot;isFromCode&amp;quot;:false,&amp;quot;selection&amp;quot;:[{&amp;quot;id&amp;quot;:324,&amp;quot;type&amp;quot;:&amp;quot;text&amp;quot;,&amp;quot;selection&amp;quot;:{&amp;quot;start&amp;quot;:0,&amp;quot;end&amp;quot;:24},&amp;quot;recordId&amp;quot;:&amp;quot;KdEMdsbRtoRM4GxeSNYcZbPdnse&amp;quot;}],&amp;quot;payloadMap&amp;quot;:{},&amp;quot;isCut&amp;quot;:false}&quot; data-lark-record-format=&quot;docx/text&quot; class=&quot;lark-record-clipboard&quot;&gt;&lt;/span&gt;" style="text;html=1;align=center;verticalAlign=middle;resizable=0;points=[];autosize=1;strokeColor=none;fillColor=none;shadow=0;fontFamily=Comic Sans MS;" vertex="1" parent="1">
          <mxGeometry x="329" y="635" width="170" height="30" as="geometry" />
        </mxCell>
        <mxCell id="txd-k2RUHVKIXWnAUGUS-6" value="&lt;div data-page-id=&quot;OuCod3JaToS2MNxbDrpcDMo3nlb&quot; data-lark-html-role=&quot;root&quot; data-docx-has-block-data=&quot;false&quot;&gt;&lt;div class=&quot;old-record-id-VGDxd2flQoIujRxmIercoZyZnIg&quot;&gt;Network Transmission Matrix&lt;/div&gt;&lt;/div&gt;&lt;span data-lark-record-data=&quot;{&amp;quot;rootId&amp;quot;:&amp;quot;OuCod3JaToS2MNxbDrpcDMo3nlb&amp;quot;,&amp;quot;text&amp;quot;:{&amp;quot;initialAttributedTexts&amp;quot;:{&amp;quot;text&amp;quot;:{&amp;quot;0&amp;quot;:&amp;quot;Network Transmission Matrix&amp;quot;},&amp;quot;attribs&amp;quot;:{&amp;quot;0&amp;quot;:&amp;quot;*0+r&amp;quot;}},&amp;quot;apool&amp;quot;:{&amp;quot;numToAttrib&amp;quot;:{&amp;quot;0&amp;quot;:[&amp;quot;author&amp;quot;,&amp;quot;7258204363011915779&amp;quot;]},&amp;quot;nextNum&amp;quot;:1}},&amp;quot;type&amp;quot;:&amp;quot;text&amp;quot;,&amp;quot;referenceRecordMap&amp;quot;:{},&amp;quot;extra&amp;quot;:{&amp;quot;channel&amp;quot;:&amp;quot;saas&amp;quot;,&amp;quot;isEqualBlockSelection&amp;quot;:false,&amp;quot;pasteRandomId&amp;quot;:&amp;quot;13f24131-cd86-4d14-8fe5-4e8071b5a53c&amp;quot;,&amp;quot;mention_page_title&amp;quot;:{},&amp;quot;external_mention_url&amp;quot;:{}},&amp;quot;isKeepQuoteContainer&amp;quot;:false,&amp;quot;isFromCode&amp;quot;:false,&amp;quot;selection&amp;quot;:[{&amp;quot;id&amp;quot;:326,&amp;quot;type&amp;quot;:&amp;quot;text&amp;quot;,&amp;quot;selection&amp;quot;:{&amp;quot;start&amp;quot;:7,&amp;quot;end&amp;quot;:34},&amp;quot;recordId&amp;quot;:&amp;quot;VGDxd2flQoIujRxmIercoZyZnIg&amp;quot;}],&amp;quot;payloadMap&amp;quot;:{},&amp;quot;isCut&amp;quot;:false}&quot; data-lark-record-format=&quot;docx/text&quot; class=&quot;lark-record-clipboard&quot;&gt;&lt;/span&gt;" style="text;html=1;align=center;verticalAlign=middle;resizable=0;points=[];autosize=1;strokeColor=none;fillColor=none;fontFamily=Comic Sans MS;" vertex="1" parent="1">
          <mxGeometry x="319" y="670" width="190" height="30" as="geometry" />
        </mxCell>
        <mxCell id="txd-k2RUHVKIXWnAUGUS-7" value="..." style="text;html=1;align=center;verticalAlign=middle;resizable=0;points=[];autosize=1;strokeColor=none;fillColor=none;fontFamily=Comic Sans MS;" vertex="1" parent="1">
          <mxGeometry x="399" y="700" width="30" height="30" as="geometry" />
        </mxCell>
        <mxCell id="txd-k2RUHVKIXWnAUGUS-8" value="" style="shape=flexArrow;endArrow=classic;html=1;rounded=0;sketch=1;curveFitting=1;jiggle=2;fontFamily=Comic Sans MS;" edge="1" parent="1">
          <mxGeometry width="50" height="50" relative="1" as="geometry">
            <mxPoint x="414" y="580" as="sourcePoint" />
            <mxPoint x="414" y="480" as="targetPoint" />
          </mxGeometry>
        </mxCell>
        <mxCell id="txd-k2RUHVKIXWnAUGUS-9" value="rotate matrix" style="text;html=1;align=center;verticalAlign=middle;resizable=0;points=[];autosize=1;strokeColor=none;fillColor=none;" vertex="1" parent="1">
          <mxGeometry x="429" y="518" width="90" height="30" as="geometry" />
        </mxCell>
        <mxCell id="txd-k2RUHVKIXWnAUGUS-11" value="Text Rule：&lt;div&gt;&lt;span style=&quot;background-color: transparent; color: light-dark(rgb(0, 0, 0), rgb(255, 255, 255));&quot;&gt;Given a matrix, rotate each layer of the matrix.&lt;/span&gt;&lt;/div&gt;" style="text;html=1;align=left;verticalAlign=middle;resizable=0;points=[];autosize=1;strokeColor=none;fillColor=none;" vertex="1" parent="1">
          <mxGeometry x="529" y="440" width="270" height="40" as="geometry" />
        </mxCell>
        <mxCell id="txd-k2RUHVKIXWnAUGUS-16" value="" style="strokeWidth=2;html=1;shape=mxgraph.flowchart.annotation_2;align=left;labelPosition=right;pointerEvents=1;sketch=1;curveFitting=1;jiggle=2;" vertex="1" parent="1">
          <mxGeometry x="469" y="310" width="51" height="160" as="geometry" />
        </mxCell>
        <mxCell id="txd-k2RUHVKIXWnAUGUS-19" value="&lt;p class=&quot;p1&quot;&gt;&lt;b&gt;execution environment&lt;/b&gt;&lt;/p&gt;" style="swimlane;whiteSpace=wrap;html=1;sketch=1;curveFitting=1;jiggle=2;shadow=0;" vertex="1" parent="1">
          <mxGeometry x="-70" y="80" width="411" height="220" as="geometry" />
        </mxCell>
        <mxCell id="txd-k2RUHVKIXWnAUGUS-22" value="" style="rounded=0;whiteSpace=wrap;html=1;sketch=1;curveFitting=1;jiggle=2;" vertex="1" parent="txd-k2RUHVKIXWnAUGUS-19">
          <mxGeometry x="45" y="184.5" width="334" height="22.5" as="geometry" />
        </mxCell>
        <mxCell id="txd-k2RUHVKIXWnAUGUS-21" value="next_states=&lt;span style=&quot;background-color: transparent; color: light-dark(rgb(0, 0, 0), rgb(255, 255, 255));&quot;&gt;[[6, 5, 4], [9, 8, 7], [12, 11, 10]]&lt;/span&gt;" style="text;html=1;align=center;verticalAlign=middle;resizable=0;points=[];autosize=1;strokeColor=none;fillColor=none;" vertex="1" parent="txd-k2RUHVKIXWnAUGUS-19">
          <mxGeometry x="70" y="180" width="250" height="30" as="geometry" />
        </mxCell>
        <mxCell id="txd-k2RUHVKIXWnAUGUS-18" value="" style="outlineConnect=0;dashed=0;verticalLabelPosition=bottom;verticalAlign=top;align=center;html=1;shape=mxgraph.aws3.android;fillColor=#FFD44F;gradientColor=none;" vertex="1" parent="txd-k2RUHVKIXWnAUGUS-19">
          <mxGeometry x="250" y="97" width="44.5" height="40" as="geometry" />
        </mxCell>
        <mxCell id="txd-k2RUHVKIXWnAUGUS-24" value="exec" style="text;html=1;align=center;verticalAlign=middle;resizable=0;points=[];autosize=1;strokeColor=none;fillColor=none;" vertex="1" parent="txd-k2RUHVKIXWnAUGUS-19">
          <mxGeometry x="340" y="95" width="50" height="30" as="geometry" />
        </mxCell>
        <mxCell id="txd-k2RUHVKIXWnAUGUS-26" value="" style="rounded=1;whiteSpace=wrap;html=1;sketch=1;curveFitting=1;jiggle=2;" vertex="1" parent="txd-k2RUHVKIXWnAUGUS-19">
          <mxGeometry x="35" y="67" width="180" height="100" as="geometry" />
        </mxCell>
        <mxCell id="txd-k2RUHVKIXWnAUGUS-27" value="Code Rule：&lt;div&gt;&lt;div&gt;def rotate_layer(matrix, layer):&lt;/div&gt;&lt;div&gt;&amp;nbsp; &amp;nbsp; # 获取矩阵的大小&lt;/div&gt;&lt;div&gt;&amp;nbsp; &amp;nbsp; n = len(matrix)&lt;/div&gt;&lt;div&gt;&amp;nbsp; &amp;nbsp; m = len(matrix[0])&lt;/div&gt;&lt;div&gt;&amp;nbsp; &amp;nbsp; ...&lt;/div&gt;&lt;/div&gt;" style="text;html=1;align=left;verticalAlign=middle;resizable=0;points=[];autosize=1;strokeColor=none;fillColor=none;" vertex="1" parent="txd-k2RUHVKIXWnAUGUS-19">
          <mxGeometry x="45" y="67" width="180" height="100" as="geometry" />
        </mxCell>
        <mxCell id="txd-k2RUHVKIXWnAUGUS-30" value="" style="rounded=0;whiteSpace=wrap;html=1;sketch=1;curveFitting=1;jiggle=2;" vertex="1" parent="txd-k2RUHVKIXWnAUGUS-19">
          <mxGeometry x="38.5" y="34.5" width="334" height="22.5" as="geometry" />
        </mxCell>
        <mxCell id="txd-k2RUHVKIXWnAUGUS-31" value="init_states=&lt;span class=&quot;lark-record-clipboard&quot; data-lark-record-format=&quot;docx/text&quot; data-lark-record-data=&quot;{&amp;quot;rootId&amp;quot;:&amp;quot;OuCod3JaToS2MNxbDrpcDMo3nlb&amp;quot;,&amp;quot;text&amp;quot;:{&amp;quot;initialAttributedTexts&amp;quot;:{&amp;quot;text&amp;quot;:{&amp;quot;0&amp;quot;:&amp;quot;[[1, 2, 3], [4, 5, 6], [7, 8, 9]]&amp;quot;},&amp;quot;attribs&amp;quot;:{&amp;quot;0&amp;quot;:&amp;quot;*0+x&amp;quot;}},&amp;quot;apool&amp;quot;:{&amp;quot;numToAttrib&amp;quot;:{&amp;quot;0&amp;quot;:[&amp;quot;author&amp;quot;,&amp;quot;7258204363011915779&amp;quot;]},&amp;quot;nextNum&amp;quot;:1}},&amp;quot;type&amp;quot;:&amp;quot;text&amp;quot;,&amp;quot;referenceRecordMap&amp;quot;:{},&amp;quot;extra&amp;quot;:{&amp;quot;channel&amp;quot;:&amp;quot;saas&amp;quot;,&amp;quot;isEqualBlockSelection&amp;quot;:false,&amp;quot;pasteRandomId&amp;quot;:&amp;quot;0db27ca0-9427-417d-b67f-9605dcfcc5ce&amp;quot;,&amp;quot;mention_page_title&amp;quot;:{},&amp;quot;external_mention_url&amp;quot;:{}},&amp;quot;isKeepQuoteContainer&amp;quot;:false,&amp;quot;isFromCode&amp;quot;:true,&amp;quot;selection&amp;quot;:[{&amp;quot;id&amp;quot;:330,&amp;quot;type&amp;quot;:&amp;quot;text&amp;quot;,&amp;quot;selection&amp;quot;:{&amp;quot;start&amp;quot;:7,&amp;quot;end&amp;quot;:40},&amp;quot;recordId&amp;quot;:&amp;quot;AOSud6PRboA7umxYf15cEBvknqe&amp;quot;}],&amp;quot;payloadMap&amp;quot;:{},&amp;quot;isCut&amp;quot;:false}&quot;&gt;&lt;/span&gt;&lt;span style=&quot;background-color: transparent; color: light-dark(rgb(0, 0, 0), rgb(255, 255, 255));&quot;&gt;[[1, 2, 3], [4, 5, 6], [7, 8, 9]]&lt;/span&gt;" style="text;html=1;align=center;verticalAlign=middle;resizable=0;points=[];autosize=1;strokeColor=none;fillColor=none;" vertex="1" parent="txd-k2RUHVKIXWnAUGUS-19">
          <mxGeometry x="78.5" y="30" width="220" height="30" as="geometry" />
        </mxCell>
        <mxCell id="txd-k2RUHVKIXWnAUGUS-32" value="" style="html=1;shadow=0;dashed=0;align=center;verticalAlign=middle;shape=mxgraph.arrows2.arrow;dy=0.71;dx=19;direction=south;notch=0;sketch=1;curveFitting=1;jiggle=2;" vertex="1" parent="txd-k2RUHVKIXWnAUGUS-19">
          <mxGeometry x="311" y="77" width="45" height="90" as="geometry" />
        </mxCell>
        <mxCell id="txd-k2RUHVKIXWnAUGUS-15" value="" style="rounded=0;whiteSpace=wrap;html=1;sketch=1;curveFitting=1;jiggle=2;shadow=1;" vertex="1" parent="1">
          <mxGeometry x="520" y="250" width="239" height="110" as="geometry" />
        </mxCell>
        <mxCell id="txd-k2RUHVKIXWnAUGUS-28" value="" style="html=1;shadow=0;dashed=0;align=center;verticalAlign=middle;shape=mxgraph.arrows2.bendArrow;dy=7;dx=28;notch=0;arrowHead=38;rounded=1;flipH=1;sketch=1;curveFitting=1;jiggle=2;" vertex="1" parent="1">
          <mxGeometry x="360" y="180" width="61" height="150" as="geometry" />
        </mxCell>
        <mxCell id="txd-k2RUHVKIXWnAUGUS-12" value="Code Rule：&lt;div&gt;&lt;div&gt;def rotate_layer(matrix, layer):&lt;/div&gt;&lt;div&gt;&amp;nbsp; &amp;nbsp; # 获取矩阵的大小&lt;/div&gt;&lt;div&gt;&amp;nbsp; &amp;nbsp; n = len(matrix)&lt;/div&gt;&lt;div&gt;&amp;nbsp; &amp;nbsp; m = len(matrix[0])&lt;/div&gt;&lt;div&gt;&amp;nbsp; &amp;nbsp; ...&lt;/div&gt;&lt;/div&gt;" style="text;html=1;align=left;verticalAlign=middle;resizable=0;points=[];autosize=1;strokeColor=none;fillColor=none;" vertex="1" parent="1">
          <mxGeometry x="530" y="255" width="180" height="100" as="geometry" />
        </mxCell>
        <mxCell id="txd-k2RUHVKIXWnAUGUS-33" value="" style="html=1;shadow=0;dashed=0;align=center;verticalAlign=middle;shape=mxgraph.arrows2.arrow;dy=0.64;dx=28;flipH=1;notch=0;sketch=1;curveFitting=1;jiggle=2;" vertex="1" parent="1">
          <mxGeometry x="220" y="380" width="131" height="40" as="geometry" />
        </mxCell>
        <mxCell id="txd-k2RUHVKIXWnAUGUS-36" value="" style="shape=image;verticalLabelPosition=bottom;labelBackgroundColor=default;verticalAlign=top;aspect=fixed;imageAspect=0;image=data:image/png,iVBORw0KGgoAAAANSUhEUgAAAvgAAAIlCAIAAAAv4BtFAAAAAXNSR0IArs4c6QAAAERlWElmTU0AKgAAAAgAAYdpAAQAAAABAAAAGgAAAAAAA6ABAAMAAAABAAEAAKACAAQAAAABAAAC+KADAAQAAAABAAACJQAAAAA68V/0AABAAElEQVR4Ae2de+APVf7/f0KkVBRKSsQqIpelpahQLiWbS4RaqbDpsuySlk23tbrYLlsJFYqSTYTaSBdUtImici3ZkLsu6CLt77k732bfn/dnZj7zfs/lPTPvx+cPzvvMmdfrnMfrvGZec86ZOcX+/e9//z/+IAABCEAAAhCAQBIJHJLERtEmCEAAAhCAAAQg8B8CBDr0AwhAAAIQgAAEEkuAQCexpqVhEIAABCAAAQgQ6NAHIAABCEAAAhBILAECncSaloZBAAIQgAAEIECgQx+AAAQgAAEIQCCxBAh0EmtaGgYBCEAAAhCAAIFODvpA375977nnHt8VT58+/bzzzvNdLAIhEAIBnCIEyKiIEYGRI0cOGDDA9wpv2rSpSpUqu3bt8l1ylAXmUaBz7rnnDh8+3DDGySef/Nhjj3k3zBtvvNGwYcMyZcpUq1ZtzJgxbgS+//77c+bMueGGG4zC33//vXrzscceW7Zs2Ysuuujzzz8vUojdKZ07d/7qq68U7hQpgQIQMAj47hSbN2/u2LFj1apVixUr5t7FvDvFgw8+eOaZZ8oTdRFPNS5OkUqDdJEEfPeIl156qXXr1hUqVDj66KObNGkye/bsIuugAlu3btXD8IgRI4zC+q6v0pUrVz788MNbtGjx4YcfFilk6NChdevWPfLII48//vjLLrvMvLPIQbp27XrrrbcWKSFJBfIo0PFotoMHD/7000+pQjZu3HjhhRdeddVVX3755cSJE9WxZsyYkVrAMn3ffff16tWrVKlSxtFBgwYtWrTovffe0x2ifPnyF198cZqWwkIcTrn66qv/+te/Fj6FHAgEQaCwUxxyyCEXXHDB008/nRZwOGv37hS6BwwZMmTYsGGFFeEUhZmQExCBwh6xZ8+e3/72t2vXrtUgyu9//3sFGUuXLi1Sux6bzz///IoVKxol77333ieeeGLu3Lk7d+4866yz2rRps3fvXmchetLQXUnlV61apXSHDh3M8tdcc82ECRN02zJzkp9QqJgnf+ecc46ug2ps27ZtZXiFGoqOa9eubTR/0qRJ9erVU/yrnGeeecbIfP3119UD9LNmzZqHHnroF198kcpKQXH9+vXNnN/97nctW7Y0f1omfvzxx6OOOmr+/PnG0W+//fawww6bOXOm8XPHjh0lSpRYuHCh5bluTvnkk09U4bR6OkjjUJ4T8N0pTJ4a1Bk/frz50yHh3SlM4bp8n3DCCeZPI4FTpAHhpwOB4DzCUHrGGWfoWdShAsahOnXqaEDULKYpiPvvv9/4eeDAAc0APPnkk+bRIhPLly/XfWH37t1myRNPPHHq1Knmz8Qn8nFE5x//+MdJJ5300EMPKSj+6KOP1AMU+WpW6/HHH1f0PXbsWC0XePPNN5Vv/D377LOLFy/++uuvNfz4c95//td4u4YizZzGjRsb/Uk5o0aNUthkHjIT69at0+zS6aefbuSsWbNGsY4pRN1XU2CmEPOs1ITzKdWrV1f05uaJIVUmaQj45RQOJINzCgelOoRTOPPhqCWBIDziX//6ly7gDRo0MDRq4FPzWYW166agG5N5m9At47PPPjNvE3oYlgTn20SazHnz5unBo1y5cma+bk/vvvuu+TPxiXwMdAobVSG2Bnt++ctfauD97LPP7tatm0Ifs5gu0Mccc4xGgIoXL25mKqHQJ7WbqhspxyigaawVK1akFjbSiqmV0KCO8dMobyek8OnKKfIUCTe0WJ5OJgRcEsjOKRyEB+cUDkqNQzhFkYgoUCQBjx6heOWSSy7RojEtAzJ09ejRw3L+SM/bKuDlNpHaFk0g3HbbbY8++mhqZr55BIHOf6yvgRbNnirgMP40V7VlyxazW2iUxUynJjTPldpN1TuVk1qgcFqrcJSpHm8cMspnJKTIUyTc0FJYOzkQcE8gO6dwL98s6d0pTFF2CZzCjgz57gl48QgtS9DChlq1aqU+QtupNoZevNwmTMl68aVLly6TJ0/Wgg0zU4l884g8DXQ0cpNq9eOOO+6RRx5RwGH8aUpLS+XNAmmFzXwt0Ekd/dOEkTkmaZZJS2itjyIVY75Mh9TvtUbHFKKFYxqidBbifMqGDRv27dunoak0vfyEQJEE0vp5dk5RpJbCBbw7RWGZqTk4RSoN0u4J+OUReuOpefPmjRo1UsChiaciK6CbgpaKmrcJjb5ojY55m9CaNq2acL5NGCqmTJnSs2dPLb3QSFKa0pUrV+bVbaLA/T6NRYJ/6iKuuVKzgVpHfMcdd6gn6Y0nvbythF6DMo/aJXr37r169Wotj//hhx/05pRWxRf52QNNfum9Ki2eN2SWLl36yiuvvOWWWzR3+80332hUSf1bi+qNo8ay+TTtzqe8/PLLv/rVr9S6tLP4CYEiCfjiFNLy3X//tLxRV2QltXbSWbV3p5D8VF1mBQy9OIUzf47aEfDFI3Sj0SW9ffv248aNS4uc7PQqv1OnTuZtQj+vvfZavXilt8q1fEfvmZcsWdKMXRQDWb4rrkWo1113nUZ09IpWmiK9h6WH6sL5acUS9TPxy63NBprL6ZWjhWZ6jlSkrC8NGAUUa+uLOMrRchyVXLBggfKNt650pTaFpCVUQOM6Cj601Ovhhx82j/75z3823+cyM43EsmXL9GEDXYuNn0qoE2v0XouI5QyKeIx8De0o9tdLiWmn66fdKTqkJvz9738vfAo5ELAkEIRTpF0ff/Ob3xiqA3UKXf3T9Gogx9CLUxgc+NcNAd89Qs/D6pm6vJt//fr1M2qim44yLWultRNaR6Gv6RhH9QT+pz/9qVKlShrs0eCQFoAa+Yp7dPfRbaiwECnVHcRUqoT5Pu/AgQP1TF74lATnFFPb0i4Q/AyagD5j8Itf/GLw4MEOivRqrsYnFTw5lEk79Pzzz+uzafqGYVo+PyEQfQI4RfRtRA3DJKAHA4U7zreAV155Ra+dv/jii+4rpg+2adRfL23pJV/3Z8W9JIFO3C1I/SEAAQhAAAIQsCWQp2t0bHlwAAIQgAAEIACBBBEg0EmQMWkKBCAAAQhAAAIFCRDoFOTBLwhAAAIQgAAEEkSAQCdBxqQpEIAABCAAAQgUJECgU5AHvyAAAQhAAAIQSBABAp0EGZOmQAACEIAABCBQkACBTkEe/IIABCAAAQhAIEEECHQSZEyaAgEIQAACEIBAQQIEOgV58AsCEIAABCAAgQQRINBJkDFpCgQgAAEIQAACBQkQ6BTkwS8IQAACEIAABBJEgEAnQcakKRCAAAQgAAEIFCRAoFOQB78gAAEIQAACEEgQAQKdBBmTpkAAAhCAAAQgUJAAgU5BHvyCAAQgAAEIQCBBBAh0EmRMmgIBCEAAAhCAQEECBDoFefALAhCAAAQgAIEEESDQSZAxaQoEIAABCEAAAgUJEOgU5MEvCEAAAhCAAAQSRIBAJ0HGpCkQgAAEIAABCBQkQKBTkAe/IAABCEAAAhBIEAECnQQZk6ZAAAIQgAAEIFCQAIFOQR78ggAEIAABCEAgQQQIdBJkTJoCAQhAAAIQgEBBAgQ6BXnwCwIQgAAEIACBBBEg0EmQMWkKBCAAAQhAAAIFCRDoFOTBLwhAAAIQgAAEEkSAQCdBxqQpEIAABCAAAQgUJECgU5AHvyAAAQhAAAIQSBABAp0EGZOmQAACEIAABCBQkACBTkEe/IIABCAAAQhAIEEECHQSZEyaAgEIQAACEIBAQQIEOgV58AsCEIAABCAAgQQRINBJkDFpCgQgAAEIQAACBQkQ6BTkwS8IQAACEIAABBJEgEAnQcakKRCAAAQgAAEIFCRAoFOQB78gAAEIQAACEEgQAQKdBBmTpkAAAhCAAAQgUJAAgU5BHvyCAAQgAAEIQCBBBAh0EmRMmgIBCEAAAhCAQEECBDoFefALAhCAAAQgAIEEESDQSZAxaQoEIAABCEAAAgUJEOgU5MEvCEAAAhCAAAQSRIBAJ0HGpCkQgAAEIAABCBQkQKBTkAe/IAABCEAAAhBIEAECnQQZk6ZAAAIQgAAEIFCQAIFOQR78ggAEIAABCEAgQQQIdBJkTJoCAQhAAAIQgEBBAgQ6BXnwCwIQgAAEIACBBBEg0EmQMWkKBCAAAQhAAAIFCRDoFOTBLwhAAAIQgAAEEkSAQCdBxqQpEIAABCAAAQgUJECgU5AHvyAAAQhAAAIQSBABAp0EGZOmQAACEIAABCBQkACBTkEe/IIABCAAAQhAIEEECHQSZEyaAgEIQAACEIBAQQIEOgV58AsCEIAABCAAgQQRINBJkDFpCgQgAAEIQAACBQkQ6BTkwS8IQAACEIAABBJEgEAnQcakKRCAAAQgAAEIFCRAoFOQB78gAAEIQAACEEgQAQKdBBmTpkAAAhCAAAQgUJAAgU5BHvyCAAQgAAEIQCBBBAh0EmRMmgIBCEAAAhCAQEECBDoFefALAhCAAAQgAIEEESDQSZAxaQoEIAABCEAAAgUJEOgU5MEvCEAAAhCAAAQSRIBAJ0HGpCkQgAAEIAABCBQkQKBTkAe/IAABCEAAAhBIEAECnQQZk6ZAAAIQgAAEIFCQAIFOQR78ggAEIAABCEAgQQQIdBJkTJoCAQhAAAIQgEBBAgQ6BXnwCwIQgAAEIACBBBEg0EmQMWkKBCAAAQhAAAIFCRDoFOTBLwhAAAIQgAAEEkSgRJTb8t133/3www+B1vCnn3465JAAo72g5QtOCCoOPfTQ0qVLB2oIhLshkACPCKfH4hRuulMyyuAUbuyY5x4R3UBH3bdatWpbt251Y8Wsy5QqVer777/P+vQiTwxavioQgorjjjtuw4YNxDpFmjvQAsnwiHB6LE4RaFeMjnCcwqUt8twjohvoaCxHUc7nn39+5JFHurRlpsU2b95cu3bt4FQELV/tDUHF119/feKJJ8ocBDqZdjB/yyfAI8LpsTiFvx0vytJwCjfWwSOiG+gY9lOUE1ygo1u4tASnImj5qnwIKtw4EmVCIxBcdw2nO4XQY0NQEZq5UeSGAE7hTAmPCHB5ijN6jkIAAhCAAAQgAIGgCRDoBE0Y+RCAAAQgAAEI5IxAEgKdqVOnNm/eXKOXxYoV+/HHH4NgOXTo0Lp160rF8ccff9lll2lZj+9abrvttlNOOeWoo4469thj27Rp8/777/uuwhR4ySWXiNX8+fPNHBIJIGDpCO+8806HDh20nFy9V314woQJfrXUUp1fwiUnYU7nIxlEuSRg2UW//fbbrl271qxZU+/bDh8+3KUou2KWKuLrdGpmCH5nBzO4/CQEOuXKlbv22mvvv//+4DApLJg4ceLOnTtXrVqltO4cvuvq3r370qVLv/rqqy1btlxwwQWKdQ4ePOi7Fgl88skn9+/fH4RkZOaWgKUj7Nq1q3PnzitWrFDXevDBB2+88caZM2f6Uk9Ldb5INoQkyel8xIIo9wQsu6j6VbNmzcaNG9ekSRP3ouxKWqqIr9OpmSH4nR3MAPP/HdU/XZfVbP3rsoKvv/66yh84cMBleRUzBmbcqzAkL1++XIp2795dpKLs5OuFyfvuu08qtm/f7rsKVUmvUG3cuFHyX3nllSLlq0CmhnAjkzJZEHBpCGdH6Nix4w033GCnPYse66yusKIsVEiIe6dT4SxUZOR0UuHSFoWbT46/BNwYwq6LnnPOOcOGDSuyPm66k50KQ7iz06mMGxWp9XRWl1rSSGcq35Tg3u/cGMIUG34iCSM6umeH+Tdv3ryqVasqkPdd6Ysvvnj00UfrLe5BgwYNHDiwQoUK/qpQ9+rTp49Ga0866SR/JSMtFgT08oUG1Rs0aBCL2qZWMr5Ol9oK0nlIIL5OJ2MF53ch94Sov14eMo4i1WldixbTTJ8+vciSWRS48MILv/zyS40VTZo0qUqVKllIcD5lzJgxinX69u3rXIyjiSSgL45069bt1FNP7dWrV7waGGunixdqausvgfg6nTgE6nf+ci5SGoFOkYj+V2DOnDm6SUyePLlt27b/y/U7Vb58eS2k0IjRL37xizPOOMMv8Z988skdd9yxZMkSvwQiJ0YEtCqrU6dOuuzOnj27RIk4eX2snS5GPYSq+k4gvk4nFOH4ne/M7QQydWVHJj1/ypQpPXv2fPbZZ/XKUvoxv39rXxItNlq3bp2PghctWqQlco0aNdJbXfqTZK1RZXTHR8KRFbVnz57WrVsrvnnppZeOOOKIyNazcMXi7nSFW0ROnhCIr9PJQGH6XTj9IQmBjt5O0lpCPa0KmTauUlqBgr/4Hnrooeuuu05Brl6G8leyKe2BBx7Ytm2bfu7YsUMvkWkfzbPOOss86j1x6aWXfvrpp3pr3fiTwLFjx44aNcq7ZCREhIClI2gfFS261Ar0GTNm+LuJh6U6H1EkwOl8pIGoLAjYdVHzNpFaIAv5OiVVgik2vk6nFoXgd9mh9nRW+OufXWp0v4q78KdBtCjdjRb3a9GFWA/Eh6f8LVy4sEgV7uVLlBboVKxYsUyZMvrkiV5ff/fdd4uUrwIZqUgVqBbx1lUqkOini/QIS0e49dZbZWv1K7PzauLVrrEZdSdLdXaSzXz3KrJzOilyryI7p5OKIm1htpdEoAScDWHXRfU2iXqX+acnAYdKOncnSxUZOZ1UO6tIrZulutQClmn38nW6sGRxs3M2hGWtwswsZjTMNHl0Elqsrq/nCZ8+dBZQrTZt2qQn3eBUBC1fWEJQEYIhArJvwsSGYIgQulMyVIRgi4T13oCaE4IhEtBjQ2hCCIbw0oWSMHXlpf2cCwEIQAACEIBAggkQ6CTYuDQNAhCAAAQgkO8ECHTyvQfQfghAAAIQgECCCRDoJNi4NA0CEIAABCCQ7wSi/umwzZs3a5VTQFb64osvJDk4FUHLV+VDUPHNN98ExB+xWRAIrruG051C6LEhqMApsui6wZ2CUzizxSOi+9aVNkPQi9b6MoGzCT0e1edqjA/weJRjd3rQ8qU3BBWlSpXSlyG0D5ddM8kPgUAyPCKcHotThNAho6ACp3BphTz3iOiO6BxyyCGKcvQBgOBeL9dzQO3atYNTEbR8dfEQVGhETS/hyxwuPYpiARFIgEeE02NxioB6YATF4hRujIJHRDfQMeynKCe4QMeYFAtORdDyhSgEFW4ciTKhEQiuu4bTnULosSGoCM3cKHJDAKdwpoRH8Jju3EM4CgEIQAACEIBAjAkQ6MTYeFQdAhCAAAQgAAFnAnENdKZOndq8eXONWBYrVuzHH380GvnOO+9olygtYVZ+3bp1C28L4swi7ailCu2Lqb02tfu3VJxyyil33HGHlw1ELVWY1XjvvfdKlix59tlnmzleEtp+pXjx4tq82vi77LLLvEjj3AgSsOxO3377bdeuXWvWrKnVDMOHD/dYbUsVkqnldH/84x+1hZB21NK/Tz75ZHaKLOX763R2Fbvkkkt0MZk/f75dAfJjR8CyO6kVK1asaNGihfpq5cqVdWH0sg+SnQr1pcMOO+zny+0RK1euzJqenQq/nC6tYrfddptubdp/Sbc5bWKtTaDTCsTxZ9TX6NgxLVeunLb41kX8qquuMsvs2rWrc+fOjz/+eIUKFd54442OHTuq2K9//WuzQEYJSxWS/MQTT9SoUUNBg66/2hRQ7yJdf/31GUk2C1uqMI5qD/bevXtrtzklzPIeE02bNn3zzTc9CuH0yBKw7E664DZr1kzOcvPNN3uvuaUKiVUsJWd89dVXdYncsWPHnj17stNlKd9fp7OsmCKz/fv3Wx4iM74ELLuTPg2g+7eurnPnzl2/fn27du10Ux84cGB2zbRUYYiaPXt269atsxObepadCr+cLlWX0t27d7/hhhukVO8j/+1vfxOrLVu26H6XVixeP+Ma6Ii+QCuaScXdvn178+d5553XsmVLbWOedaBjqaJs2bK1atUytOgWoqfkNWvWmEozTViqMIQMGzasVatWiqJ4xMyUat6Wt+xOpUuXNi7iSngnY6lC8c0rr7yycePGihUrSoX+NRJZqLOU76/TFa6VtjzUWJeeAdI2tS5ckpx4EbDsTs8///zBgwc1GK89ujXwP3jw4AcffDDrQMdShb+ULFX46HRptTVvcBroUnyzffv23bt362EjrVi8fsZ16qpIylpnrpmsBg0aFFkyiwKaNdOwZPXq1aVlwIABWUhwPmXhwoVz5swZOXKkc7FMjy5fvlz9VVfzHj16bNiwIdPTKQ8BSwKKcqpVq3bXXXcdf/zx+hLBlVdeuXPnTsuSXjIDcjpdzfv06aNA56STTvJSPc6NCwHNxei+oCjHqHDjxo01Nm+8l+RvE3r16nXMMcc0bNhw/Pjx/kqWtECd7sUXX9Qzth6NBg0apBAw7lGOcCUz0NGYW7du3U499VR1Nd97mAQuWrRo7969b7311uWXX571w6tdxSRZV175RpkyZezKZJHfpUuXjz/+WOH522+/rbEojalKURZyOAUCaQQU1qxatUorBjQRsHTpUg2QyC/Synj/GZDTjRkzRrFO3759vdcQCbEgoJgm9dunmqNRtX0PdDQSr4dJfZL4zjvvHDJkiLqZv3ACdTotydCXGLUUZPTo0Vrw4G/NcyItgYGO5tovvvhiXXY1RWqG7b7D1Zielj7IYXy/RP7hD3/QHJzWyvlb59NPP11jOQpxTjjhBC0z0iekFPH4qwJp+UnAeCfg7rvv1urOSpUq3X777Vr9EMSSF9+d7pNPPtEUxmOPPZafhsvPVqu76i5utt1YT6ZMM8eXhBYeaNRf3yPWxfzGG2986qmnfBFrCgnB6cqXL6+aX3311R988IGpN6aJpAU66rUaq1B889JLL2nFe9BWOXDggJc1OpbVe/nll7U0Uive9aebhybglNCzsmXh7DIV7ujPy7sG2enlrEQS0OB8WrsC7V0+Op1GifTY2qhRo/9627Fqhd5m8P3RJQ0OP3NLoH79+prEN9/V1RikFiH4HuiktlFLOX2/2IbjdHqnWO62bt261ObEMR3XQEeryfQ6krFNlQZvlJZJtB+TXlPSKoEZM2Z4X3ppqUIzoxoIkUb5iVY6P/DAA6kroDPtAZYqlixZ8uGHH2oiWX/9+/fXdLISJ598cqbC08pPmzbNWDmxbds2Bel68taIVFoZfsaagGV3UotMB0ktkF1LUyWYYvVitoYJ9Xq53FBxg97XlVNodCcLFZby/XW61FpdeumlWp/xX1f7zz86NHbs2FGjRqWWIR1fApbdqVOnThoaHDFihN4T1JX23nvv9bLO0lLFsmXL9HEQ3Z50m5g3b97999/v5XMelip8dLo0++qmpnuEMvX6pN7W1KCUvqiSViZ+PxVpRvPvq6++Ek39a1m9wt/IUdihK6xO0dIWXWSNv7Zt21qebmRql6tMVUyfPl0L9SVcTwCnnXaaxr0V8NqpcJavsyxbkSpN3qhOlpqTli5ShVleXxjSY6tGU/XpCL1AqCDdPOSccDaE87kc9ZFAkYaw605pLxPpYcCuVkV2JzsVWqOjkVT5hdYj64sPCneyU2EpPyOnk94iW2FXN10NFFTZHU3NL9IWqYVJB0fA2RCW3UmV0VyMvk+mi6Ge93SN1UOyQw2du5OlilmzZmmFqNxBL67Xq1fPWAfmrwpJ88vp0iqmBTpaeKrbqL5Ip7vGu+++m1bA8qezISxPCTMzuvMXWh2mXiJ8wQ0qatWkhn+CUxG0fF2XQ1ARgiHUEP6KJBCCIULoTslQEYItiuwPFBCBEAyRgB4bQhNCMISXDh/XqSsvbeZcCEAAAhCAAATyhACBTp4YmmZCAAIQgAAE8pEAgU4+Wp02QwACEIAABPKEAIFOnhiaZkIAAhCAAATykUDU97rSd+20yikgy+izlZIcnIqg5avyIajQHngB8UdsFgSC667hdKcQemwIKnCKLLpucKfgFM5s8YjovnWlj1fq9TZ9q8PZhB6P6iMBxsd4PMqxOz1o+dIbgopSpUrpG0Wp3023ay/5wRFIhkeE02NxiuD6YaQk4xQuzZHnHhHdER19TVJRjr5hENzr5XoOqF27dnAqgpavLh6CCo2o6SV8mcOlR1EsIAIJ8IhweixOEVAPjKBYnMKNUfCI6AY6hv0U5QQX6BiTYsGpCFq+EIWgwo0jUSY0AsF113C6Uwg9NgQVoZkbRW4I4BTOlPAIHtOdewhHIQABCEAAAhCIMQECnRgbj6pDAAIQgAAEIOBMIK6BztSpU5s3b64RS+2TbO5Dq03aunbtWrNmTU3cDh8+3LnlRR61VKGztHJI+xdq/yBtZaJ/tdN4kaLsCtipUKO0D4t2Xzf+Vq5caSch0/zFixe3bNmybNmyWlmsTT21yUumEigfWQJ23WnFihUtWrRQd9U2Z9oPTlvMZN0EOxV+9Vg7+UaFtVFiyZIltUtR1vVPO1E0tL/jz352hJedF9Mk8zOCBPbs2dOvXz9tQCuLn3/++atXr/ZeyRB6rKUKbUarbRC1faFugqeccop2XfT9Yq59Q+XX8+fP904p5xKivkbHDlC5cuW0saoiG+0gaJaRVXTzVv7NN99sZmadsFQhaYqlpPfVV19V99L+rnIe31VI4OzZs7VLYtaSLU9UlNOuXbsHH3xwzpw5WoSv24aIWZYkM44ELHusXoRu06ZN7969586du379enUAbSE3cODA7BpoqcIQ5UuPdZCvrdHVCu1IqkR2lbc8q2nTpm+++ablITITRkD9R4+p2tFTgc7QoUONWEcPAF6aGUKPtVRRoUKFJ554okaNGorUFfRoJ049u15//fVe2pJ6rh7g9+/fn5oT63RcAx1du8X9jTfeSKVfunRp4wquRGp+dmlLFYpvtL/xxo0btb+rxOpfI+GjiuxEuTlryJAhiguvuOIKo/CZZ57p5izKxIWAZY99/vnnDx48qAe+EiVK1K1bd/DgwYp0sw50LFX4yMdB/rBhw1q1aqWreTIeMX2Ehig3BPbt26cHvLfeekujICo/atSohx56aObMmT179nRzul2ZEHqspQqNyteqVcuolZ5XNYmxZs0au0pmmq9NQDUlogcATVlkem40y8d16ipXNBXlVKtW7a677jr++OP10vWVV165c+fOICrTq1evY445pmHDhuPHj/dFvsLzt99+W+F/kyZNJLlRo0bTp0/3RTJCokzg/fffb9CggaIco5KNGzfW85/xFoa/1fa9x6ZWb+HChbpLjRw5MjXTl/Ty5cv1cKwLeo8ePTZs2OCLTIREk4Ambc15WyO9bNmygKoaXI9NrbDWb2iRQ/Xq1eXRAwYMSD2UdVpk+vTpo0DnpJNOylpI1E4k0MnMIgprVq1apfFPzQIsXbpUke/ll1+emQgXpfXMqmuuPmd55513ahhmzJgxLk4qosju3bs1iTtp0qSHH35427Ztej7WigRNZhVxGodjTkBXwNQvPWoYXA3yPdAJosea4Pfu3asrryL+MmXKmJm+JLp06fLxxx9v375dzwB6LNZksXT5IhkhUSOgKSrZ95ZbbtHVT6M7uq7qju67IxitDq7HplFdtGiRdGmYSrchL3MLqWJ1uxGZvn37pmbGPU2gk5kFjeXPd999t9ymUqVKt99+u5Y++D6XqSF6xelaRtO+ffsbb7zxqaeeyqyWVqU11KlszVLrmV7P9506dTrvvPM0cmtVlrzkEFCP1ddjzfYYS8qUaeb4kgiix5oV+8Mf/iBH0HpqM8evxOmnn66xHIU4WqCqFQ/6rpoiHr+EIydqBCZPnqz1+BrM1tIWRfynnnqqMY3lez2D67GFq6pBeq1M1cOML6HJJ598omnuxx57rLCiWOfEdY1OrqBrLilNta6Sin/TMn38qclXX+RrCapWT6u2PtYNUdEnUL9+/SlTpujNRGP2SsOQGuj2PdBJ5eBXjzVlvvzyy4rVnn76aeXooeLAgQO6Py1ZskS3K7OM94RcQ3+++Jr3yiAhCAIa89CQtiFZw3j33HOPAvQgFIXTY1NrLqfwZY2Ohoh27dqlWNAU3rlz527duo0bN87MiWMiriM6Wl+ply+Mbao0kaS08XKdmU4tkJ1hUiWYYvXGnR7+9Hq5NKpD6PVUPWtmvW7fUoWmjfU+lJqmm9O8efPuv/9+v9561Zr8iRMnatGGWM2aNWvBggUa18kODmdFkIBld5KJ9cw3YsQIvSr44Ycf3nvvvV7m8i1V+NhjLeUrplHN1W/1179/fy05UuLkk0/2boJp06YZa+w0nXH11VdrjFYPx97FIiGaBBQKKL5R3bTwQGuQ9aEN72+2htBjLVVotahGH3Vj0m3i9ddff+CBB3Qn8o790ksv1Rq+/7raf/6RwLFjx2rhtnfJOZagJ5ho/n311VdCo38tqzdhwoQ0cDK2SqatEtfLqJanG5na5SoLFVqjI/dQcKP1yHqJSeGOnQpn+TrLshUKQTSmKvkag6lXr54xY5q1irQTtZyzSpUqertSdwvNW6UdtfzpbAjLU8gMgkCRhrDsTqqJ3qfVt2c0GaobuSIehbl21ct5j7Vrgllh1V+fDzF/WiaKbIV5VocOHTQ4JDKa0ejevfu6devMQ86JIm3hfDpH/SKQkSEef/xxPabK3LoG6vVDhf5uquHcnULosZYq9CqJXqLUbUKjs6eddprmmzSoY9cc5ybYnaV83R8VUTkUMA9lZAjzrNAS0R2q1TIx3emFL7hhdi0l1ptTwakIWr56YQgqQjBEWszKT0sCIRgihO6UDBUh2MKyD5CZRiAEQySgx4bQhBAMkWb6jH7Gdeoqo0ZSGAIQgAAEIACB/CRAoJOfdqfVEIAABCAAgbwgQKCTF2amkRCAAAQgAIH8JECgk592p9UQgAAEIACBvCAQ9e/o6BNeWuUUkCn06WFJDk5F0PJV+RBUaFfIgPgjNgsCwXXXcLpTCD02BBU4RRZdN7hTcApntnhEdN+60ifCjjvuOH0nwNmEHo/q68PGx3g8yrE7PWj50huCilKlSm3dujV1JwG79pIfHIFkeEQ4PRanCK4fRkoyTuHSHHnuEdEd0dH3VRXl6AMAwb1erueA2rVrB6ciaPnq4iGo0IiaXsKXOVx6FMUCIpAAjwinx+IUAfXACIrFKdwYBY+IbqBj2E9RTnCBjjEpFpyKoOULUQgq3DgSZUIjEFx3Dac7hdBjQ1ARmrlR5IYATuFMCY/gMd25h3AUAhCAAAQgAIEYEyDQibHxqDoEIAABCEAAAs4E4hroTJ06tXnz5hqx1IbD2tXMbOSKFStatGihHUC0eY123NRWGuYhj4k9e/b069dPW6Voo6jzzz9/9erVHgUWPl07C/bo0UMbEmnZb9OmTbXpZuEyXnLq1Kmjyht/ZcqUEboZM2Z4Eci5kSVAd3VvmsWLF2t/x7Jly8rvtKmnsT2w+9MpGRcCibnABtpjdd/UNsA/3yiO8GtL6dx2krgGOuXKlbv22mu1s3cqPr3z2aZNG+35px2J586d+9hjj6UVSC2cabp3794bN27U/ogSrohBsc6+ffsyFeJcXi3Symht1KyNQrt06XLRRRft3r3b+ZSMjn700Ud7f/7ThrTHHHNMu3btMpJA4bgQoLu6tJTuGfIC4dJdUK5933336QHA5bkUixeBZFxgQ+ixesz++Uax95lnnomXla1rG9r2oZkqcrMbqnYsV6vMXVsnTpxYoUIF86einOrVqzvodb+nq6yu5f3qYYY0bXurmHfy5MkOwnXIvXxDjvYqV52NtPGhjiVLlvirwpSmDdKHDBli/nRIuDGEw+kc8ouAe0Nk111Vz4x6bBbdNVMVJjr33TVTFdrXfdCgQaYilwn3tnApkGLZEcjIEHnbYzPy6xEjRmiwIFNzZGSITIV7Lx/XER3LqO39999v0KBBiRL/9ypZ48aNP/30U2PBuWX5jDIN1sYpRnrZsmUZSSiy8E033TRz5kx93Emx2sMPP3zKKafIM4s8K4sCr7322tq1a/v375/FuZwSCwJ0Vzdm2r9//9tvv62HliZNmmiAs1GjRtOnT3dzImXiSCABF9hweuzy5cs1ZFC1alUtpdiwYUMcbZ1W50QFOoppUj9qp+kttdaXQEeLflq3bn3LLbdofFszVsZYiC+SU+2hOLp06dJaXXTYYYeNHj160qRJSqQW8Cv9yCOPtG3btlq1an4JRE6kCNBdXZpDU8NakSNH03OFXHvYsGFakaCBW5enUyxeBBJwgQ2hx2rVxMcff7x9+3Y9A2gaVzc+jRDHy9CFa5uoQEdrk/WhTLORWo+ptDLNHC8JTVQpBNEzX40aNRRCaSz92GOP9SIw7VxdcLUiUh+D1gKd7777bvz48e3bt9cYVVox7z+3bNnywgsvaLrauygkRJYA3dWNabQAWcW0QEejvxoJ7tSp03nnnadRVTfnUiZeBJJxgQ2hx55++ukay1GIozdvnnjiCX1sUBFPvGxduLZR/2Bg4Ro75NSvX3/KlCl6CcuYvVq6dKnW6PgV6FSsWFFPfoZ2Rbv33HNPq1atHCqT6SGFZZpoe+6558qXL69zO3bsqKkrLalWozIV5Vx+3Lhx+tIxy5CdKcX9KN3VjQWPOuooeRmrj92winuZZFxgQ+6xcg39aR487taP64jOwYMHNexhbFOlnSKUVsCuBzJNt2stlRYL692le++9d8CAAX5ZaM2aNYpvJG39+vU9e/bU6IvG9PwSLjlaInDaaadpCF0zYmrLnDlz9JKUBpB8VCFRigI1VqT35NnSwV+wUZNGd3Vpkeuvv14vMWjoVE43a9YsfdNBlxGX51IsRgQSc4ENusdOmzZNrx/KsprMvfrqq/W5E31zIUaGtq6qsWgxgv86r+KeMGFCWnv0BpZaode/9RqFlrbIPIp4dPFyaFpGa9Eff/xxDeVJcpUqVQYPHqxYykGycSgj+TpFC4Q1kKNVYBqf1CZcY8eO9V2FRoy0Q+eOHTuKlGwWcDaEWYxE0AQyMkQW3VX1z6jHZtFdM1WRRXfNVIXKjxw5Uk6tD4foVQbNWymnyL+MbFGkNApkTSAjQ+Rtj83Irzt06KBVGbrTaalG9+7d161b58Y6GRnCjUB/y0R3VEoDGxqmEz6/5p7SAiP93LRpkyZxglMRtPwQmiAVIRiisGnIKUwgBEMko8eG0IoQbFG4A5BTmEAIhgihOwWtImj5sksIhihsffc5cZ26ct9CSkIAAhCAAAQgkLcECHTy1vQ0HAIQgAAEIJB8AgQ6ybcxLYQABCAAAQjkLQECnbw1PQ2HAAQgAAEIJJ9A1L+joyVOwRnB2E8qOBVByxeZEFQExyc4yyZYcqDmCKE7JUNFoFZIcO8NqGmBmiMBPTaEJgRqAu/dJrpvXenTONqjYOvWrd4b6SBB71rrMzwOBTweClq+qheCCn2vWTueaHsKjzQ43QuBZHhEOD0Wp/DS02J0Lk7h0lh57hHRDXRkP3Vi45OALm2ZRTF9aCfQT+cFLV9NDkHFoYceSpSTRe/y/ZQEeEQ4PRan8L3vRVYgTuHGNHnuEZEOdNzYjzIQgAAEIAABCEDAjgCLke3IkA8BCEAAAhCAQOwJEOjE3oQ0AAIQgAAEIAABOwIEOnZkyIcABCAAAQhAIPYECHRib0IaAAEIQAACEICAHQECHTsy5EMAAhCAAAQgEHsCBDqxNyENgAAEIAABCEDAjgCBjh0Z8iEAAQhAAAIQiD0BAp3Ym5AGQAACEIAABCBgR4BAx44M+RCAAAQgAAEIxJ4AgU7sTUgDIAABCEAAAhCwI0CgY0eGfAhAAAIQgAAEYk+AQCf2JqQBEIAABCAAAQjYESDQsSNDPgQgAAEIQAACsSdAoBN7E9IACEAAAhCAAATsCBDo2JEhHwIQgAAEIACB2BMg0Im9CWkABCAAAQhAAAJ2BAh07MiQDwEIQAACEIBA7AkQ6MTehDQAAhCAAAQgAAE7AgQ6dmTIhwAEIAABCEAg9gQIdGJvQhoAAQhAAAIQgIAdAQIdOzLkQwACEIAABCAQewIEOrE3IQ2AAAQgAAEIQMCOAIGOHRnyIQABCEAAAhCIPQECndibkAZAAAIQgAAEIGBHgEDHjgz5EIAABCAAAQjEngCBTuxNSAMgAAEIQAACELAjQKBjR4Z8CEAAAhCAAARiT4BAJ/YmpAEQgAAEIAABCNgRINCxI0M+BCAAAQhAAAKxJ0CgE3sT0gAIQAACEIAABOwIEOjYkSEfAhCAAAQgAIHYEyDQib0JaQAEIAABCEAAAnYECHTsyJAPAQhAAAIQgEDsCRDoxN6ENAACEIAABCAAATsCBDp2ZMiHAAQgAAEIQCD2BAh0Ym9CGgABCEAAAhCAgB0BAh07MuRDAAIQgAAEIBB7AgQ6sTchDYAABCAAAQhAwI4AgY4dGfIhAAEIQAACEIg9AQKd2JuQBkAAAhCAAAQgYEeAQMeODPkQgAAEIAABCMSeAIFO7E1IAyAAAQhAAAIQsCNAoGNHhnwIQAACEIAABGJPgEAn9iakARCAAAQgAAEI2BEg0LEjQz4EIAABCEAAArEnQKATexPSAAhAAAIQgAAE7AgQ6NiRIR8CEIAABCAAgdgTINCJvQlpAAQgAAEIQAACdgQIdOzIkA8BCEAAAhCAQOwJEOjE3oQ0AAIQgAAEIAABOwIEOnZkyIcABCAAAQhAIPYECHRib0IaAAEIQAACEICAHQECHTsy5EMAAhCAAAQgEHsCBDqxNyENgAAEIAABCEDAjgCBjh0Z8iEAAQhAAAIQiD0BAp3Ym5AGQAACEIAABCBgR4BAx44M+RCAAAQgAAEIxJ4AgU7sTUgDIAABCEAAAhCwI0CgY0eGfAhAAAIQgAAEYk+AQCf2JqQBEIAABCAAAQjYESDQsSNDPgQgAAEIQAACsSdAoBN7E9IACEAAAhCAAATsCBDo2JEhHwIQgAAEIACB2BMg0Im9CWkABCAAAQhAAAJ2BAh07MiQDwEIQAACEIBA7AkQ6MTehDQAAhCAAAQgAAE7AgQ6dmTIhwAEIAABCEAg9gQIdGJvQhoAAQhAAAIQgIAdAQIdOzLkQwACEIAABCAQewIEOrE3IQ2AAAQgAAEIQMCOAIGOHRnyIQABCEAAAhCIPQECndibkAZAAAIQgAAEIGBHgEDHjgz5EIAABCAAAQjEngCBTuxNSAMgAAEIQAACELAjQKBjR4Z8CEAAAhCAAARiT4BAJ/YmpAEQgAAEIAABCNgRINCxI0M+BCAAAQhAAAKxJ0CgE3sT0gAIQAACEIAABOwIEOjYkSEfAhCAAAQgAIHYEyDQib0JaQAEIAABCEAAAnYECHTsyJAPAQhAAAIQgEDsCRDoxN6ENAACEIAABCAAATsCBDp2ZMiHAAQgAAEIQCD2BAh0Ym9CGgABCEAAAhCAgB2BvAh0Tj755Fq1atWvX1//jho1yo6F8m+99dbvvvvOocDEiRNXr15tFJg1a9bAgQMdCmd06Msvv3SuW5HSPvvss3PPPfeoo45SS4ssTIE8J5AnTvHaa681adKkdu3aderUGTJkyE8//ZTndqf5dgTyxCMWL16sG4T+5BH9+vX7/vvv7YAkKv/fefBXtWrV5cuXq6GbNm068sgj33nnHbtGy7R79uyxO6r8c845Z8aMGQ4Fsj60YcMGxShZn64Td+3atWjRojlz5pxxxhle5HBuPhDIE6dYtmzZJ598IoN+++23Z5111oQJE/LBuLQxCwJ54hH79u374YcfxOfgwYO//vWv//rXv2bBKnan5MWIjhmZnnDCCaeeeurGjRuVs379+tatW9erV0+x7cyZM5XTv39//du8eXPlbN++/emnnz7zzDMbNGiguGH27Nk69Nhjjy1dulSjOCrw0ksvaXRHHUX5+rvnnnsUINetW7dnz55fffWVcjQ41K1btw4dOuhpsmXLlrt37/5vwf/7R0+W11133WmnnSbhjRo10jCStH/zzTeS/Mtf/lKFtm7deumll+phVDKHDx9unKZnjsGDB6t8jRo1pDFVoNLly5c/++yzDz/88LR8fkLAgUCynUL+W716dTW/dOnSci6Nejqg4BAERCDZHlGmTJmSJUuqmQp3FP0XK1YsL4weu9AsiwqbofqqVatOOeUUBTESohji0UcfVWLt2rUKEXQFVFomN0d0du7cqXBEmRprqVSpkmIRpVNHdPR02LFjR2Uq6FH8ZJx4zTXXKGRR5ogRI6RXQpRWxDNy5EglzD89aOoUxdTK0aSVEmkjOhdccMEbb7yhowcOHGjTps20adOUlsDLL79ctdqxY8eJJ5741ltvmQLNxOuvv86IjkmDhB0B9SVjmDMfnEIQvvjiC3nxu+++aweE/DwnkD8eoXuNnvD1SKxnaU1d5YPdS+RFNPf//p9CjUMOOWTNmjX33XdfhQoVNHaiUEOBgppfs2ZNDYRo0kcdPZWGeoOGZzTbVaJECY3H6KdCk9QCZnr+/PmSf/TRRyvnt7/9bdeuXY1Dbdu2PeaYY5Ru2rTpypUrzfJK6Cnzxx9/7NOnz3nnnXfhhReqbqlHNbr46quvbtu2zcjcu3evam6kr7rqKsXgxx57bKdOnaS3WbNmqSeShoB7AvnjFF9//bXGVrVGxxgudY+IknlFIE88QjMDH3zwgW4rvXr1ev7557t37554K+dLoPPss89q4FqRga53mkiSpVNNazl8J/NrdXCXLl1UUkM+zouUTWmpojRabuQXL15cYY1ZRgktx/nwww8XLFigAZibb7554cKFCqfMAgqxlV6yZIkpwTyUmkjVlZpPGgJuCOSJU+ipRo8cGnwdNGiQGyyUyVsCeeIRhn2POOII3eOmTJmSD4FOgYGExPdvLcrRiIuWvJQtW7Zhw4aae1KTtVjnzTffbNGihdLKN1bYKK2pqGrVqikxefJkpZXQn9YymwWMHP0rsZpa0lOj0mPHjtWsk3nILqG5Jw3bqKSmtBR1ffzxx5KsGVPNm+oUdUGN9JgvYW3ZskUDS4YoLQxSQiNMWhPdqlUrI5N/IZA1gWQ7hR5bFeXoz1zoljUoTswTAsn2CN3vtBxCptS9RjcRzWHlg1n/N4qQD61VG//0pz9pJe97772nSFaLaR566CGNi2iV8UknnaSjv//9788//3wt15o3b94DDzyg4RxNSGkEyDiqAn379lUZzX8pQDGJtWvXTsMzmp/SDJT6zSOPPGIeskt8/vnnWs2jDqfVOXoZRBK0QOyKK67Q6YpytORZ1dMD6Omnn67qaTJV8VOVKlUkTfNuWoysYEtrmdPmrfbv3/+LX/xCc646qsJazfOXv/zFrgLkQ8AkkGCnkBf/85//1EOFhujVXk0rDxs2zGw4CQhYEkiwR+iDCw8++KAxyaBHZbXUkkDCMosZsyQJa1VSm6OxH70gpjm4pDaQdkEgUwI4RabEKJ9sAnhEYfvm19RV4faTAwEIQAACEIBAggkwopNg49I0CEAAAhCAQL4TYEQn33sA7YcABCAAAQgkmACBToKNS9MgAAEIQAAC+U6AQCffewDthwAEIAABCCSYAIFODoyrd9QL71TlvR7Tp0/X13e8y0ECBMInoG9K/f3vf/dd7+jRo3v37u27WARCIGgCAd0m9O0SfeLf+GBb0E2Ijvw8CnTOPfdc86NhegFP387xaAZ9uVhflNdHk/WtP+3cOWbMGDcC33//fW0wfsMNNxiF9UkDbR2qL/cYn8lxI0FfyhkwYIB2gdDnDS+66CJ9ksc4q3PnzvqCjsIdN0IoAwER8N0pTKovvPCCPgGlb8ybOQ6JWbNm6ROa5t4p8lNtxnnooYdqbxaHs1IP2Z2iz03pm1i6uKcWJg0BOwK+e4R2UTS+haYPpBl/hT85W7gyHm8TukfoK3H6rJruEbqzKG1+81b3LG0m/be//a2w0gTn5FGg49GK+rKfdtNMFaL9QfUMqm079U3kqVOnahdPRTCpBSzT+tigrv6lSpUyjlauXFlb8GT0ETN9SFA7c+mbh5s3b1aYdfHFF5sVu/rqq//6179a6iUTAr4TKOwUhgo5xe9+9zt9CdOlRo276PuZZmF51u23364nWjOnyITdKXI0uZucrkgJFICAdwJ2HmHsLaXvdOtP+/8UqcjjbUI7DpUrV04fXdOO0drIdt26dVdeeaWpVL6mD2mqqmZO8hP5sHOp0UZtPK54Qml9D14htq6A+uKwRmKMo5MmTdJXiY2xmWeeecbI1EZU6gH6qY0/9XypDZCN/LR/FWesWLGiYsWKmpBKO5T2U/1PvVxbbqXlazOKE044IS3T8qe2iTjssMPUg42jeg7WJlnaKsv4+cknn6jCdvW0FEhmPhMIyCm046yu1L/5zW+0LW6ReLdv3y5/1Jfp00rqyUGhUlqm80/LU7Q/rp5r9RVy53M5CgER8N0jtBu0rskKNdzj9X6bSNOlrR50azMzdRPR7UwzEmZO4hP5OKLzj3/8Q1s6aPMHBdcfffSReqE2kNLQ9+OPP67xPW22oEdJ7X6lfONPO70tXrxYwzbafuHnvP/9rz3PtfWmgiTNJWnXBeOAtqlSzv8K/ZxSd9e4pTZ2+Dkj4/+1jbm6aZMmTYwzpVQbci1fvtz4qU3RFb0xUJ8x1rw/wUen0N5wil3MyVkT7bXXXquZVvOnmdDYpJ46NCRj5vibkCdqX8/Vq1f7KxZpySbgo0cIlOInXau1aY9iDpNbcLcJU4WR0Oyt5oLNTN2w9OiukR4zJ/GJfAx0ChtV0z0a7NHkpTar0rKAbt26GXtnGiXVHY855hhdi7U/SOFzN27cqMuoepKWyOjB0SgwdOhQjfEULqzNOJXpZuiy8LlGjrF1qHbgMgtoiNLINHIk3NBiFiABgSwIZOcUmk696aabnnjiCblSmlLtAWc5t6vu6sUj0rQU/mkIxykKkyEnIwLZeYTim7ffflvjOlpMqS2ltVX4Sy+9ZOgN7jaR2q4nn3zyqaee0lxVama+3SbSL0apLPInrYEWbdWp6MH401yVNgw3m2/sYW7+LJzQMKC2AtW6hCI3SNOSGp3uZjFaYS1GjkYgldDMq1lAo1BGppEj4YYWswAJCGRBIDunuOqqq+RKel50r1Hd1YtHFKnIEI5TFAmKAs4EsvMILUDWfs+6R2jJgYb8L7vsMg15Oivyfpsw5Y8bN27gwIEvv/zyGWecYWYqkW+3iTwNdNIeN4877jg9bip6MP40pWUG3eoTaYVTu0tqWosANK+UmlM4rRuAghJjvqzwUTc5tWrVksOYo46KrrSq3xyW1HODNmrW0JQbUZSBQCqBtH6enVPMnTv3z3/+s55i9acV+s8995wSegckVVFaumHDhirw6aefpuX79XPlypW62eiVWr8EIidPCPjiEWmsJFMLYtIy0356v00YAu+66y4tydCS0LTXAr777jsFbXl1m8jTQEcX8dSgRG+I3HHHHYoetKxY11wltG4grfMV/vn8889rLb3iG32TQGnF6e3bty9cLDVHk196SUo3AzNT687U7SREOUroz3QDrdBMnUEzTtH0qtbP33LLLf/61780ZaanZ62nNvuxIvdf/epXap0pnwQEXBLwxSk0Pi+n0Mux+lNXl0cooWlfhzpoFb86cKpTyB3kCHIN+cJ/feI743TjTd033nijsDS7U1RSTqG1QVqzX/gsciDgQMAXj9AbsqtWrdIrTrpNaK7g6aef1qCOg1Id8n6bkBDNIOvbJQsWLDAfg02leslGTte4cWMzJ/mJxC+3NhtoLqdXjhaaKWrWPGXdunWNAgpT9GSpHC3HUUn1D+Ubb13pGmoKSU1oEEgfKtDiX51Vv379hx9+2Dyqh1rzfS4z00gsW7bs+OOPNwIa5eg9kbROplEZ5euarkvz2rVrjbNS/9W5Wtep4U2p1o1EEY95VE3QG+/mTxIQcCbgu1Okqkt766pfv3564TG1gJnWCk15kPlTJ6Y5hXFIIY4ml7XaxixpJuxOjZyVowAAMThJREFU0XOL3O2f//ynWZIEBBwI+O4R48eP1zsi+lKaFlPqk2nTpk0ztQd3m9DtQx5UsmRJ3SPMPy0nNVRfcsklRb4gbFYyGQl2L0+7oobxU58xUIQ0ePBgB2VyDz0KK3hyKJN2SKNKCuEtn3fTSvITAlEjoC8jyy/MbwZaVk9vDCjQcXactBO1gFQjTPp4RFo+PyEQcQIB3SY0WdGjRw+9K+M8zhpxOJlWj0AnU2KUhwAEIAABCEAgNgTydI1ObOxDRSEAAQhAAAIQ8ECAQMcDPE6FAAQgAAEIQCDaBAh0om0fagcBCEAAAhCAgAcCBDoe4HEqBCAAAQhAAALRJkCgE237UDsIQAACEIAABDwQINDxAI9TIQABCEAAAhCINgECnWjbh9pBAAIQgAAEIOCBAIGOB3icCgEIQAACEIBAtAkQ6ETbPtQOAhCAAAQgAAEPBAh0PMDjVAhAAAIQgAAEok2AQCfa9qF2EIAABCAAAQh4IECg4wEep0IAAhCAAAQgEG0CBDrRtg+1gwAEIAABCEDAAwECHQ/wOBUCEIAABCAAgWgTINCJtn2oHQQgAAEIQAACHggQ6HiAx6kQgAAEIAABCESbAIFOtO1D7SAAAQhAAAIQ8ECAQMcDPE6FAAQgAAEIQCDaBAh0om0fagcBCEAAAhCAgAcCBDoe4HEqBCAAAQhAAALRJkCgE237UDsIQAACEIAABDwQINDxAI9TIQABCEAAAhCINgECnWjbh9pBAAIQgAAEIOCBAIGOB3icCgEIQAACEIBAtAkQ6ETbPtQOAhCAAAQgAAEPBAh0PMDjVAhAAAIQgAAEok2AQCfa9qF2EIAABCAAAQh4IECg4wEep0IAAhCAAAQgEG0CBDrRtg+1gwAEIAABCEDAAwECHQ/wOBUCEIAABCAAgWgTINCJtn2oHQQgAAEIQAACHggQ6HiAx6kQgAAEIAABCESbAIFOtO1D7SAAAQhAAAIQ8ECAQMcDPE6FAAQgAAEIQCDaBAh0om0fagcBCEAAAhCAgAcCBDoe4HEqBCAAAQhAAALRJkCgE237UDsIQAACEIAABDwQINDxAI9TIQABCEAAAhCINgECnWjbh9pBAAIQgAAEIOCBAIGOB3icCgEIQAACEIBAtAkQ6ETbPtQOAhCAAAQgAAEPBAh0PMDjVAhAAAIQgAAEok2AQCfa9qF2EIAABCAAAQh4IECg4wEep0IAAhCAAAQgEG0CBDrRtg+1gwAEIAABCEDAAwECHQ/wOBUCEIAABCAAgWgTINCJtn2oHQQgAAEIQAACHggQ6HiAx6kQgAAEIAABCESbAIFOtO1D7SAAAQhAAAIQ8ECAQMcDPE6FAAQgAAEIQCDaBAh0om0fagcBCEAAAhCAgAcCBDoe4HEqBCAAAQhAAALRJkCgE237UDsIQAACEIAABDwQINDxAI9TIQABCEAAAhCINgECnWjbh9pBAAIQgAAEIOCBAIGOB3icCgEIQAACEIBAtAkQ6ETbPtQOAhCAAAQgAAEPBAh0PMDjVAhAAAIQgAAEok2AQCfa9qF2EIAABCAAAQh4IECg4wEep0IAAhCAAAQgEG0CBDrRtg+1gwAEIAABCEDAAwECHQ/wOBUCEIAABCAAgWgTINCJtn2oHQQgAAEIQAACHggQ6HiAx6kQgAAEIAABCESbAIFOtO1D7SAAAQhAAAIQ8ECAQMcDPE6FAAQgAAEIQCDaBAh0om0fagcBCEAAAhCAgAcCBDoe4HEqBCAAAQhAAALRJkCgE237UDsIQAACEIAABDwQINDxAI9TIQABCEAAAhCINgECnWjbh9pBAAIQgAAEIOCBAIGOB3icCgEIQAACEIBAtAkQ6ETbPtQOAhCAAAQgAAEPBAh0PMDjVAhAAAIQgAAEok2AQCfa9qF2EIAABCAAAQh4IFDCw7mBn/rdd9/98MMPgar56aefDjkkwGgvaPmCE4KKQw89tHTp0oEaAuFuCCTAI8LpsTiFm+6UjDI4hRs75rlHRDfQUfetVq3a1q1b3Vgx6zKlSpX6/vvvsz69yBODlq8KhKDiuOOO27BhA7FOkeYOtEAyPCKcHotTBNoVoyMcp3Bpizz3iOgGOhrLUZTz+eefH3nkkS5tmWmxzZs3165dOzgVQctXe0NQ8fXXX5944okyB4FOph3M3/IJ8IhweixO4W/Hi7I0nMKNdfCI6AY6hv0U5QQX6OgWLi3BqQhaviofggo3jkSZ0AgE113D6U4h9NgQVIRmbhS5IYBTOFPCIwJcnuKMnqMQgAAEIAABCEAgaAIEOkETRj4EIAABCEAAAjkjENdAZ+rUqc2bN9eIZbFixX788UeT34oVK1q0aHH44YdXrlz51ltv/fe//20eyjRhqeLbb7/t2rVrzZo19a7W8OHDM5WZVt5SxTvvvNOhQwet/1Xr6tatO2HChLSzsv5pqS5raZwYZQJ79uzp16/fCSeccMQRR5x//vmrV6/2pbZ2Xcgvv7OUH2un8wU7QnwhsG3bth49elSqVOnoo49u2rTpggULfBGbKiQIv7N0Cin1y+kkylKFv36XSin8dFwDnXLlyl177bX3339/KrJvvvmmTZs2Z5111s6dO+fOnfvYY4+lFUgtXGTaUoXiqmbNmo0bN65JkyZFSiiygKWKXbt2de7cWZ34q6++evDBB2+88caZM2cWKcpNAUt1bk6kTOwI9O7de+PGjR988IF8oU6dOop19u3b570Vll3IR7+zlB9rp/POHAl+EdAtQ6+efPjhh7rGdunS5aKLLtq9e7dfwg05QfidpVP46HSquaUKf/3OX84ZS9OYRzT/dJtXY/SvQ/Vef/11lTlw4IBRZuLEiRUqVDB/KsqpXr26w+nq9JmqMKWdc845w4YNM39aJtzI14lprUgT1bFjxxtuuCEt0/zpUoVZXglndakljbQbQxQ+ixzfCbg3xN69ezXiuHjxYqMOejIrXrz45MmTi6ySy+6U1oUy8js3KtLkm9V243Qq7EWFocvZ6VTGvS3MypMIgkBGhqhXr55uCkY1FCjo4r9kyZIia+WmOxlCAvW7NKfw3enUhDQVJhk3fpeRIUzJoSXiOqKjPlr47/3332/QoEGJEv/3Klnjxo0//fRTY8F54cKxyFHlNZOlRsWitlQyOgSMK4hRHyO9bNmygKqXML/D6QLqJzkXe9NNN2l0/IsvvtDD8MMPP3zKKaco9PG3VqH5XcKczl8rFJaWqEBHVyhNvpqN1HCc0vENdPSJiG7dup166qm9evUyG0UCAkUS0Bq11q1b33LLLVqUoBmrIUOG6PobnCMkye9wuiJ7V3wLaFWDPgam5ZuHHXbY6NGjJ02apISPzQnT75LkdD6awE5UogIdrd798ssvzaZqXZjSyjRzYpTYv3//xRdfrK82z5492xyjilH9qWpuCWiiShf0Ro0a1ahRQxG/wuVjjz02oColxu9wuoB6SBTEag+Eli1b6iUPLdDR95THjx/fvn17jYv4W7fQ/C4xTucvfztpiQp06tevv3z5cvMlrKVLl2qNThwDHYVoeiJXfPPSSy/prRk745EPATsCFStW1APrpk2bNFB/3XXXaQePVq1a2RX2mJ8Mv8PpPHaDiJ8u+2olg9Y7li9fXpdWLcPS1JXeWfG32qH5XTKczl/4DtLiGugcPHhQUbnGmdU2DXsorYC9U6dOWnQ5YsQIrb7U0vp77713wIABDo13PmSpIlVdagFnUXZHUyWYrdDGF1r8pV0XZsyY4e+uC5bq7OpGfqwJrFmzZvv27WrC+vXre/bsqWdZhc7eW2TZhXz0O0v5qrbpHakFsmtOqgRTbHBOl10lOct3Asccc8xpp52mpTma9NHNYs6cOR999JGGPP1VFITfWfZYH51OBCxVKN90kNQC/hILSZqxeCqC/zqv4i78dRmtGFcr9D7t2WefrZlXfSxBEY86tEPTnJfT26moWrVqqm0UlNipcJavsyxV6PM/kl+mTBnN+Bp/bdu2zVpF6omW6lILWKadDWF5CplBEMjIEI8//rg+oiNHqFKlyuDBgxX6u6lSdj1Wkt37nbMKuy7q3ulUmSxUZOR0UpGRLdyQp0x2BDIyxNq1azWQozdzy5Ytq10Ox44d60apc3dKkxCE39k5hV9OpybYqXDvdxkZIg1aCD+LSUfqbTs6acXdRx11lPAFN/ekgX0NnASnImj5MlYIKkIwRHR6XZRrEoIhQuhOyVARgi2i3BWjU7cQDJGAHhtCE0IwhJdeF9epKy9t5lwIQAACEIAABPKEAIFOnhiaZkIAAhCAAATykQCBTj5anTZDAAIQgAAE8oQAgU6eGJpmQgACEIAABPKRwP/tlhDZpm/evFmrnAKqnj4xIsnBqQhaviofggpjU5iATIDYTAkE113D6U4h9NgQVOAUmfbbQMvjFM548YjovnWlbxzrK5Z6j9/ZhB6PHnroocbHeDzKsTs9aPnSG4KKUqVK6UMjqdtr2LWX/OAIJMMjwumxOEVw/TBSknEKl+bIc4+I7oiOtl9WlKNvGAT3ermeA/Q1heBUBC1fXTwEFRpR00v4ModLj6JYQAQS4BHh9FicIqAeGEGxOIUbo+AR0Q10DPspygku0DEmxYJTEbR8IQpBhRtHokxoBILrruF0pxB6bAgqQjM3itwQwCmcKeERPKY79xCOQgACEIAABCAQYwIEOjE2HlWHAAQgAAEIQMCZQEICHe1M269fP23uo72+zz///NWrVzs3283RqVOnNm/eXIOixYoVM3dEN0987733SpYsqX21zJwsEnYqpFG7FKktxt/KlSuzEJ52ytChQ+vWravmHH/88ZdddpmxgUtaGX4mhsC2bdt69OihHd+0hLxp06YLFizwpWmWPVabQp911lnHHnusepd2hL7jjju0x1x26izlm6J8cTpTmhLO6lJLko47gTp16vx8QT1COwnqGqtdk703yq4LaYHpH//4R+0Vpf0K9e+TTz6ZtS5LFT46nSpmqeKdd97p0KGDXgmSX+veUXg/rKxbFP6JCQl0evfuvXHjRm1ytnPnTnVoxTr79u3zSLNcuXLXXnvt/fffX1iONkuXRm3nWfhQRjkOKmbPnr335z91sozEWhaWY0+cOFF8Vq1apbR6sGUxMpNBQF1XseyHH364a9euLl26XHTRRbt37/beNMseq10Sn3jiCYVWWgrwyiuvPP3009ojOjtdlvINUX45XWrFHNSlFiOdAALaq/znC+reUaNGaTPzdu3aeW+XXRfq2rXru+++++qrr0qpEmeeeWbWuixV+Oh0qpilCl06OnfuvGLFCm0H+eCDD954440zZ87MuhU5PjGEjUOzU+F+N1T1JK29X7x4saFIGzUXL1588uTJReo1RjWkyKGkNkWXhQ4cOJBaZtCgQbK6dkfXg2xqflrajXydUliFNOqGkSbN8qdLFWnnLl++XCp050vLt/zp3hCWp5PpF4GMDFGvXj3F6IZq46MvS5YsKbImLrtT4R5rStaDpt5kHDBggJmTlnCjwlK+S6eTOjcqUmtlqS61QOF0RrYofDo5fhHIzhCnnnrqkCFDXNbBTXdK60Lz588vXbq0Qv/gVKRK9sXpJDCtFakqlNbG7zfccENapvkzO0OYpwedSMiIjoHJiBmN9LJly4yfvv+7cOHCOXPmjBw50nfJqQJ79eqlZ46GDRuOHz8+Nd+X9Lx58zSaqijeF2kIiSCBm266SY9f+lCYYnSNr2hGSaFPoPXUPK/mW6tXr65xHQU6/uoKx+n8rTPSokngtddeW7t2bf/+/YOrnh5Tq1Wrdtddd2mdgL7NceWVV2ooPQh1gTpdaoXl1JrJatCgQWpmjNJJCHQ0Cdq6detbbrlFEbRmrIxQ3XihzndLaPSoT58+Cj40y+u7cFOgHgg2bNigu9Sdd96p5owZM8Y85D0h4bfddtujjz7qXRQSIktAY416pqxcubKCj9GjR0+aNEmJQGu7aNEiecdbb711+eWXV6xY0Udd4TidjxVGVJQJPPLII23btlUgElwljRUCWqazfv36pUuXbtq0SU4RhLrgnC61tvqmbrdu3TQMpsfv1PwYpZMQ6Ai3Jqp0TW/UqFGNGjU0UCGTaGlkEGb4wx/+0L59+xYtWgQh3JTZqlUr3Zb0LUvp0hzZU089ZR7ymNBYlFZsCJdc3aMoTo8sAa0FbtmypVYRapZdS1sUl6sjvf/++0FXWFPGzZo10/Lnvn37+qgrHKfzscKIiiyBLVu2vPDCC1rBFmgNjVdY7r77bj2E64WA22+/fe7cufv37w9CaUBOZ1ZV1b744osVtGnZaIkSUf/wnlnttERc653WDD1B6pnVyNy+ffs999yjWCGtjC8/X375ZX10XMstJU09QPMCiqi0+kEBli/yCwvR8iNNxhXOzyJnypQp8vBp06a1adMmi9M5JS4E9BKipu2fe+658uXLq86aXNfUlS619evXD6EJcoo1a9b4qCh8p/Ox8oiKFIFx48ZpLsmXZcgO7dKSg7Sjev/Dr8t4mmTjp+9OZ4jVleTCCy/UZUTz4BohtlQdi8yEjOjowqr4RsQ1VNizZ089zmoyy6MBDh48qKdhYycsxbNK60FZMY3eZNHDsf40y6s5SyVOPvnk7HRZqtDqIr1GK716p12LabSkVG+DZyc/9ayHHnrouuuu04gOUU4qlkSmtbrrtNNO09IcTeCq08roeuVE453eG2vZY7Ui4e2335aPqMdqPeMDDzygAaTsdFnK99fpUitmqS61AOkkEVD/1OimPkSip0e/2mXZhS655BJ960Svl+uuoVHVW2+9VR6h0Z3slFqq8NHpVCtLFdrfUG8WKy7Ue/ixjnL+g91YuhvBfzNaxf3444+rY2m6p0qVKoMHD9aLV25a5LycvvBnA3QRTxXr/a0rSxWzZs3S1Ju84qijjtICUi3QSVWalnZuQmph2VoDjxJr/mmBZ2oBu3RGhrATQr53AhkZQsstNZCjd1DLli2r16DGjh3rpgJFdifLHjt9+nR9AUH9SiP2CrD0HR09X9qpc1ZhKT9VVJFOp8LOKlKlFakutXBqOiNbpJ5I2l8CGRlCY5zan3jHjh0Z1cG5O9l1IX3FQw/bcgqtR77qqqsU7jgozUKFj06nilm2QvGZ7hpajWreMrTgwa4VGRnCTkhw+cGOpwlT1n96GNWdXvh09cxaiPOJWiOmcDU4FUHLV+tCUBGCIZzNxFGDQAiGCKE7JUNFCLag27shEIIhEtBjQ2hCCIZw0x/syvg2gmengHwIQAACEIAABCCQKwIEOrkij14IQAACEIAABAInQKATOGIUQAACEIAABCCQKwIEOrkij14IQAACEIAABAInEPXv6GzevFmrnALCoE8PS3JwKoKWr8qHoMLYKSkgEyA2UwLBdddwulMIPTYEFThFpv020PI4hTNePCK6b13pu3z6tKs+zuFsQo9H9fVh40s5HuXYnR60fOkNQYXeydQ3FfTFW7tmkh8CgWR4RDg9FqcIoUNGQQVO4dIKee4R0R3R0TedFOXoAwPBvV6u5wB9YiQ4FUHLVxcPQYVG1PQSvo+f2HLpmRRLI5AAjwinx+IUaT0nwT9xCjfGxSOiG+gY9lOUE1ygY0yKBaciaPlCFIIKN45EmdAIBNddw+lOIfTYEFSEZm4UuSGAUzhTwiNYjOzcQzgKAQhAAAIQgECMCRDoxNh4VB0CEIAABCAAAWcCCQl0tm3b1qNHj0qVKmnBbNOmTRcsWODcbDdHp06d2rx5cw2KauNZ7QZnnKJNoc866yztWK587QitbX20aaIbaZZlLFWopBYnaUO4qlWrapMR/fvkk09anp5R5m233aYKa1cNVV77emov0oxOp3C8CNSpU+eIn/+0W436sHbm896EoHusnXzVXzvZ/dygI1auXOm9LZIwdOhQ7dIlX9aGRNo619hyyBfJCIkmgcWLF2vLZ20ApztFs2bNvFy9jQaG0GPtVBgV0A7QJUuWPPvss/0C7qzOLy0hy0lIoHPttdfqIqV9xbV3WpcuXS666KLdu3d7RFmuXDmJ1ebhqXK0S+ITTzyhuEqznto/9umnn9Ye0akFMkpbqpCErl27vvvuu6+++urevXuVOPPMMzMSa1m4e/fuS5cu1cZeW7ZsueCCCxTraMday5JkJoCAtitX5zH+Ro0apf3M27Vr571dQfdYO/mq+ezZs39u0F5FJ97bIgmKnyZOnLhz505twah0hw4dfBGLkGgSUJQjL+jdu7cu4DL6fffdJ6N7rGoIPdZBhXZHV3O0x7jHVqSe7qAutVi80lFfjOyS5vr16/v06aMoROX79ev3hz/8Yd26dR7jA4UCkvbGG2+k1kGPArVq1TJy5CRa879mzZrUAhmlLVUovlEItXHjxooVK0qa/jUSGUkuXNistnaILV68+Pbt2xULGsQKFyYnSQTGjBmj/ZNLly7tvVFB91hL+d6rbSfhL3/5i3FIL98OGTKkQYMGe/bs0YXerjz5sSYgE8sRrrjiCqMVHm8QhpAQeqyDimHDhrVq1UqjU/Pnz/fLNA7q/FIRvpyEjOjcdNNNM2fO1GeRDhw4oCEWzdHUq1cvOJqa0tJAevXq1TWuM2DAAH8VKcqpVq3aXXfdpeF0vdd95ZVX6uHDFxUvvviiXEI3vEGDBg0cOJAoxxeqERfy2muvrV27tn///sHVM7gem1rnXr16aVyqYcOG48ePT833Kz1v3jxNExPl+MUzanL279//9ttv6xmvSZMm6kiNGjWaPn16oJUMuscuXLhwzpw5I0eODLQVyRCekEBH62Z0/65cubLij9GjR0+aNEmJ4Cy0aNEijaK/9dZbl19+uS/DLalVNQbStUxHw1SabNq0aZO0pBbIOn3hhRfq+1qa3RMirWTKWg4nxojAI4880rZtW4XOwdU5uB5r1lkPrBs2bNCTzJ133qnnco1RmYd8SUi+FrE9+uijvkhDSAQJaABbK3J0a9CTsKauNBaiVVmazAqoqkH3WN2ANImhoF8r8AJqQpLEJiHQUffV+jJ9Rlm3cM1Zyvbt27cPerGtngy0lk0DJH379vW3QxjLn++++26tRNby6ttvv33u3Ll6HPFLS/ny5W+88carr776gw8+8EsmcqJJQOuxXnjhBS01C7R6QfdYVV7j83p00QSTXFu996mnnvKxRXos1sK+yZMnKyL0USyiIkVAqw5UH61oady4cYkSJTp16nTeeedpHiCgSgbaY1VnLc+QL7Ro0SKg+idMbBLW6GhaXS9DPffcc7qFyzwdO3bU1JWCg/r16wdtLc2UeVmjY1k9Dc6n5WsxkBbWpGV6+anQUDXXMqYzzjjDixzOjTiBcePGafbTl2XIDi0NocematfCOB/dYcqUKQoEp02bZixNSFVEOkkE9MKp7gveVx9nwcTfHmtU4OWXX9bwvN6G0U89But6rtdplyxZUqNGjSxqmPhTkjCiownX0047TQOSWjGjW7iez/TKiaZgPRpPLyVpfMjYCUsTSUpLuJYjaKJXP/XC+euvv/7AAw8orM5akaWKSy655IQTTtDr5dKoMapbb71VKjS6k7UW40RVVQO2Su/YsUNXdj0ca77Po0xOjzIBdVGNbmptvq6zftUz6B5rKX/ZsmV6h1aeqBZpJY1ehNSkgy8teuihh6677jpdMYhyfOEZcSHXX3+9XrLTYL+u5LNmzdJXSDSu47HOIfRYSxWKafSWsdqiP63A0zp6JU4++WSPzdHpluq8i82xBD0bRfNPL0ILjf51Uz0tt9RAjlbXanxS21eNHTvWzVnGZzPsVEyYMCHNNopstH5Nr7Yq7NBwvaIrfUdHobSdLmf5OstShfL1smvr1q2lReuR9ZqAwp2sVZgnaoGOlhNpQldzfHqNVm+tm4ecExkZwlkUR70QyNQQGuPUbqyKa90rzXmPtfQI3ZNOPfVUuYMeyvWSgRboOLeoyFaYp8vBNYshyeafFniaRx0SmdrCQRSHvBDI1BBaululShV9kEmRgeat3Kh27k4h9FhLFak1HzFihJ5aU3PS0s5NSCtcpLq08sbPTA1hKSS4TJ/nRNIiAy8/NTyj65rwKaTwIsfhXK3z1cB+cCqClq+mhaAiBEM42IhDJoEQDBFCd0qGihBsYdqdhAOBEAyRgB4bQhNCMIRDNyjykG9j2kVqogAEIAABCEAAAhAImQCBTsjAUQcBCEAAAhCAQHgECHTCY40mCEAAAhCAAARCJkCgEzJw1EEAAhCAAAQgEB6BqH9HZ/PmzVrlFBAPfWhVkoNTEbR8VT4EFd98801A/BGbBYHgums43SmEHhuCCpwii64b3Ck4hTNbPCK6b13pa0h6EVpfrHE2ocej+pyM8aUcj3LsTg9avvSGoEJvKW/dulWfgbZrJvkhEEiGR4TTY3GKEDpkFFTgFC6tkOceEd0RHX3lTFGOPgAQ3Ovleg7QR3eCUxG0fHXxEFRoRE0v4fv40TmXnkmxNAIJ8IhweixOkdZzEvwTp3BjXDwiuoGOYT9FOcEFOsakWHAqgpYvRCGocONIlAmNQHDdNZzuFEKPDUFFaOZGkRsCOIUzJTyCxcjOPYSjEIAABCAAAQjEmACBToyNR9UhAAEIQAACEHAmkIRAp06dOtq7xPjTXk7an3bGjBnOzc7u6OLFi1u2bKnttLQst1mzZtoZLjs5lmdp887ixYv/3I4j/Nq20FKX9g0Vpfnz51seJTMZBBLTXWWOgHrsbbfdph2ttdWMdn7Wvp7aFjEZpqcVhQmEeYGNdY8dOnSo9nPUbKB2WtRtyNgnqzDPeOUkIdDRXuV7f/4bNWqUNjNv166d72bQbUNie/furT3Ad+7ced999ylW8FdL06ZNf27H3meeecZf4aa0J598cv/+/eZPEokkkJjuKusE12O7d+++dOlS7Xa3ZcuWCy64QLGOtm5OZH+gUSIQzgU27j1W9zXt8a57nPaWVlo7QCeg80R9MXKmiLWzsbb7Ll26dKYnFll+yJAhknzFFVcYJc8888wiT4lgAe3uNnz48DfffLNq1aoRrB5V8otAMrqraATaY2vVqmUA17bJGk/dvn377t27K1So4JcVkJOHBOLeY//yl78YVtMb6bqMaJv3PXv2lCtXLtamTMKIjmmA1157be3atf379zdz/EpoCOTtt9/WpbBJkyYaMWrUqNH06dP9Em7KWb58uS6yCkF69OixYcMGM9+vhK7mffr0UaBz0kkn+SUTOREkkIzuKrAh9NgXX3xRM9F6NBo0aNDAgQOJciLYn/2qUtAX2OT12Hnz5ul+FPcoR3ZJVKDzyCOPtG3btlq1an45hilHz3lakTNp0qSHH35YU1fDhg3T5KVmB8wC3hNdunT5+OOP9UypiEoDhq1bt9Y0lnexqRI03KU7R9++fVMzSSePQDK6q+wSQo+98MIL9dG5Xbt2jR49WlMbyesMtMggEMIFNmE9Vos4tYjt0UcfTUIX0p0vmn+aOBdf/euyevomUokSJebMmeOyvIoZy6zcqNClUJXROJ4pXDP6qT/N/NSEe/mpZyn93Xff6WPEc+fOTcsv/NO9ivXr1+tL05999pkhRM155ZVXCgssnJOpIQpLIMcXAu4NkV13VSXdd6fUFrnvrhmpyLrHZtcKrc7RAkytR05tml3avS3sJJDvC4HsDJFvPTYLj5g9e7YW6T///PMuzZSdIVwK914sOSM648aN0wd8g1iGrJhAJtfbGb6vPpZkyz8p0p+sa3k0u8xFixbpsVWTbnrBRH8S0rlzZ0Z3soMZ8bMS0F1FOOQeqyHbAwcOrFu3LuLGpXreCQRxgU1Sj50yZUrPnj2fffZZve3onXYkJHiPlQKSkFGEqCtU5cqV9cpVRpXJKM69//77K1WqpFlePfm98MILGnFZsmSJs7qM5KtX7dixQwK1q9Tll1+umVF9ztJZvo66V7Fv3z4VNv/U+fRil0KfIlVkZIgipVEgawIZGSKL7qqKqXuoY0hRkZXMrrtmpCLrHuu+FaIkd1OtNGV8zTXXKEDU61dFtl0FMrKFG4GUyY6Ae0Pkc4917xGywt/+9jetWlu4cGFGFnFviIzE+lU4IW9dKfLQPVtvRQUXPN54441a46l37TQvULNmTbmNvy9eTZ48ecCAAbq4a+VXixYtND+qD/b42Bx9YUh/qQI1rlO+fPnUHNKJIRD37ipDhNBjNXs7cuRILYbTpFXjxo3ldPp2SGL6AA1JJRD0BTYxPfb666/XIpDUuZF//OMfzZs3T4UZu3RCAh3NwugvaPo3//cvIC2zZs0KSLKlWEXKlvlkJoZAkrqrjBJEj9WSvsSYm4Y4Ewj5AhvfHhuEozmbJoSjyVmjEwIsVEAAAhCAAAQgEC8CBDrxshe1hQAEIAABCEAgAwIEOhnAoigEIAABCEAAAvEiQKATL3tRWwhAAAIQgAAEMiAQ9cXIesU6g9ZkWPSbb77RGcGpCFq+Kh+CiuD4ZGguiv+HQKDmCKE7JUNFoFago2dKIFBzJKDHhtCEQE2QaX8oXN7nr9IVVpB1jj5eqc0c9JWLrCW4OVGfw/n+++/dlMyuTNDyVasQVOiTytp7K4itUrOjmp9nJcMjwumxOEWe+AhO4dLQee4R0Q10ZD914h9++MGlIbMrps+hHnJIgPN3QctXq0NQoW1siXKy62D+npUAjwinx+IU/na8KEvDKdxYJ889ItKBjhv7UQYCEIAABCAAAQjYEQhwMMNOJfkQgAAEIAABCEAgHAIEOuFwRgsEIAABCEAAAjkgQKCTA+iohAAEIAABCEAgHAIEOuFwRgsEIAABCEAAAjkgQKCTA+iohAAEIAABCEAgHAIEOuFwRgsEIAABCEAAAjkgQKCTA+iohAAEIAABCEAgHAIEOuFwRgsEIAABCEAAAjkgQKCTA+iohAAEIAABCEAgHAIEOuFwRgsEIAABCEAAAjkgQKCTA+iohAAEIAABCEAgHAIEOuFwRgsEIAABCEAAAjkgQKCTA+iohAAEIAABCEAgHAIEOuFwRgsEIAABCEAAAjkgQKCTA+iohAAEIAABCEAgHAIEOuFwRgsEIAABCEAAAjkgQKCTA+iohAAEIAABCEAgHAIEOuFwRgsEIAABCEAAAjkgQKCTA+iohAAEIAABCEAgHAIEOuFwRgsEIAABCEAAAjkgQKCTA+iohAAEIAABCEAgHAIEOuFwRgsEIAABCEAAAjkgQKCTA+iohAAEIAABCEAgHAIEOuFwRgsEIAABCEAAAjkgQKCTA+iohAAEIAABCEAgHAIEOuFwRgsEIAABCEAAAjkgQKCTA+iohAAEIAABCEAgHAIEOuFwRgsEIAABCEAAAjkgQKCTA+iohAAEIAABCEAgHAIEOuFwRgsEIAABCEAAAjkgQKCTA+iohAAEIAABCEAgHAIEOuFwRgsEIAABCEAAAjkgQKCTA+iohAAEIAABCEAgHAIEOuFwRgsEIAABCEAAAjkgQKCTA+iohAAEIAABCEAgHAIEOuFwRgsEIAABCEAAAjkgQKCTA+iohAAEIAABCEAgHAIEOuFwRgsEIAABCEAAAjkgQKCTA+iohAAEIAABCEAgHAIEOuFwRgsEIAABCEAAAjkgQKCTA+iohAAEIAABCEAgHAIEOuFwRgsEIAABCEAAAjkgQKCTA+iohAAEIAABCEAgHAIEOuFwRgsEIAABCEAAAjkgQKCTA+iohAAEIAABCEAgHAIEOuFwRgsEIAABCEAAAjkgQKCTA+iohAAEIAABCEAgHAIEOuFwRgsEIAABCEAAAjkgQKCTA+iohAAEIAABCEAgHAIEOuFwRgsEIAABCEAAAjkgQKCTA+iohAAEIAABCEAgHAIEOuFwRgsEIAABCEAAAjkgQKCTA+iohAAEIAABCEAgHAIEOuFwRgsEIAABCEAAAjkgQKCTA+iohAAEIAABCEAgHAIEOuFwRgsEIAABCEAAAjkgQKCTA+iohAAEIAABCEAgHAIEOuFwRgsEIAABCEAAAjkgQKCTA+iohAAEIAABCEAgHAIEOuFwRgsEIAABCEAAAjkgQKCTA+iohAAEIAABCEAgHAIEOuFwRgsEIAABCEAAAjkgQKCTA+iohAAEIAABCEAgHAIEOuFwRgsEIAABCEAAAjkgQKCTA+iohAAEIAABCEAgHAIEOuFwRgsEIAABCEAAAjkgQKCTA+iohAAEIAABCEAgHAIEOuFwRgsEIAABCEAAAjkgQKCTA+iohAAEIAABCEAgHAIEOuFwRgsEIAABCEAAAjkgQKCTA+iohAAEIAABCEAgHAIEOuFwRgsEIAABCEAAAjkgQKCTA+iohAAEIAABCEAgHAIEOuFwRgsEIAABCEAAAjkgQKCTA+iohAAEIAABCEAgHAIEOuFwRgsEIAABCEAAAjkgQKCTA+iohAAEIAABCEAgHAIEOuFwRgsEIAABCEAAAjkgQKCTA+iohAAEIAABCEAgHAIEOuFwRgsEIAABCEAAAjkgQKCTA+iohAAEIAABCEAgHAIEOuFwRgsEIAABCEAAAjkgQKCTA+iohAAEIAABCEAgHAIEOuFwRgsEIAABCEAAAjkgkBeBzsknn1yrVq369evr31GjRjlgvvXWW7/77juHAhMnTly9erVRYNasWQMHDnQonNGhL7/80rluLqX9+9//btmy5dFHH+2yPMXyk0CeOMUbb7xx2GGHyfeNv2+//TY/zU2riySQJx4hDitXrjz33HNP++/f888/XySZJBTQfTHxf1WrVl2+fLmauWnTpiOPPPKdd96xa7IsumfPHrujyj/nnHNmzJjhUCDrQxs2bDjqqKOyPt08cfTo0VdffbUvokyZJJJHIE+c4vXXXz/jjDOSZz5a5DuBPPGIffv2VatWbdGiRQL4448/bt++3XeSERSYFyM6ZkB6wgknnHrqqRs3blTO+vXrW7duXa9ePT3qzZw5Uzn9+/fXv82bN1eOzP/000+feeaZDRo00IVy9uzZOvTYY48tXbpUozgq8NJLL2l059e//rXy9XfPPffUqVOnbt26PXv2/Oqrr5SjwaFu3bp16NChdu3aGmLZvXv3fwv+3z8//fTTddddp5Bawhs1aqRhJGn/5ptvJPmXv/ylCm3duvXSSy9t0qSJZA4fPtw4Tc8cgwcPVvkaNWpIY6pAI/3RRx+pLUOHDi18iBwIWBJIvFNYtppMCNgRSLZH6L72q1/96uyzz1bzixcvXqFCBTsOicqPYPDle5XMUH3VqlWnnHKKEcMqhnj00Uela+3ateXLl//ss8+UlmnNEZ2dO3cqHFGmxloqVaqkWETp1BGdCRMmdOzYUZkKehQ/GSdec801ClmUOWLECOmVEKUV8YwcOVIJ82/ZsmU65eDBg8rRpJUSaSM6F1xwgUbddfTAgQNt2rSZNm2a0hJ4+eWXq1Y7duw48cQT33rrLVOgEj/88EPTpk0//vjjNFGpZUhDwCCgvmQMcybbKTSic8QRR+hxRc8PDz/8MNaHgB2BPPEIPaj37t37wgsv1DO27iZ5MqJTIlFRm31jFGoccsgha9asue+++xTDauxEoYYCBZ1Rs2ZNhbcaylNHTxWgcEHDM5rtKlGihMZj9FOhSWoBMz1//nzJN5bF/Pa3v+3atatxqG3btsccc4zSij80LWqWV6J69eoaNuzTp895552nPqe6pR7V6OKrr766bds2I3Pv3r2quZG+6qqrihUrduyxx3bq1El6mzVrZp542223KVOjRArazEwSELAjkA9O0bBhQ7mwZnL1b/v27eU4Gii1A0J+nhPIB4/QfUc3jiVLllSuXPmPf/yjbljPPfdc4u2eL4HOs88+q1khGVhzSZpI0hxQqmkVOqT+NNLdu3fX6uAuXbrop4Z8nBcpm6eniipdurSRrxFCdS+zjBK68n744YcLFizQE+fNN9+8cOFChVNmAT1zKK2+aEowD6UmUnUpX9L+9a9/PfTQQ9L19ddfq43vvvtuvoxMpnIh7Y5APjiF1uQZMKpUqXLZZZfpeYZAx13vyMdS+eARJ510kp6uNT0nA/fq1UvTBflg6QIDCYlvsBblKIDVkpeyZcvqUU9zT2qyFuu8+eabLVq0UFr5xgobpTUVpUVbSkyePFlpJfSn66ZZwMjRvxKrqSXFFkqPHTtWs07mIbuE5p40bKOSmtJSRKL5JknWKyGaftIpGmxXXzRfwtqyZYueRw1RWhikhEaYtCa6VatWRqbxry7iWn6k4Rw1R9KUIMpJ5UPakkCyneKLL77QVK8arkHcOXPmaA7LEgKZEDAJJNsjFOjrAdi4W2nRhSawzIYnOPG/UYQENzK1aX/605+0kve9996bMmWKFtNo/EPjIlplrDhXxX7/+9+ff/75ZcqUmTdv3gMPPKDhHE1IaQTIOKoCffv2VRnNfylAMcW2a9dOwzOan9IMlFY3P/LII+Yhu8Tnn3+u1Txaf6PVOWeddZYklCxZ8oorrtDpinK05FnVGzRo0Omnn67qHX744Yqf9EgqaYpdtBhZwZbWMqfOW9kpIh8CRRJIsFNMnz59zJgxGi7VMKfmlK+88soiaVAAAgn2CN3LNGOle4fuVhrXGTduXD6Yu5gxS5IPTU1AGzX2o5eqNAeXgLbQBAj4QgCn8AUjQhJDAI8obMr8mroq3H5yIAABCEAAAhBIMAFGdBJsXJoGAQhAAAIQyHcCjOjkew+g/RCAAAQgAIEEEyDQSbBxaRoEIAABCEAg3wkQ6OR7D6D9EIAABCAAgQQTINBJsHFpGgQgAAEIQCDfCRDo5HsPoP0QgAAEIACBBBMg0EmwcWkaBCAAAQhAIN8J/H/HxpMh8Os/dwAAAABJRU5ErkJggg==;" vertex="1" parent="1">
          <mxGeometry x="-220" y="325" width="207.65" height="150" as="geometry" />
        </mxCell>
        <mxCell id="txd-k2RUHVKIXWnAUGUS-37" value="" style="html=1;shadow=0;dashed=0;align=center;verticalAlign=middle;shape=mxgraph.arrows2.arrow;dy=0.59;dx=14;direction=south;notch=0;sketch=1;curveFitting=1;jiggle=2;" vertex="1" parent="1">
          <mxGeometry x="140" y="310" width="24.5" height="62" as="geometry" />
        </mxCell>
        <mxCell id="txd-k2RUHVKIXWnAUGUS-39" value="plot code" style="rounded=0;whiteSpace=wrap;html=1;sketch=1;curveFitting=1;jiggle=2;" vertex="1" parent="1">
          <mxGeometry x="90" y="380" width="120" height="60" as="geometry" />
        </mxCell>
        <mxCell id="txd-k2RUHVKIXWnAUGUS-42" value="" style="html=1;shadow=0;dashed=0;align=center;verticalAlign=middle;shape=mxgraph.arrows2.arrow;dy=0.64;dx=28;flipH=1;notch=0;sketch=1;curveFitting=1;jiggle=2;" vertex="1" parent="1">
          <mxGeometry y="380" width="81" height="40" as="geometry" />
        </mxCell>
        <mxCell id="txd-k2RUHVKIXWnAUGUS-43" value="" style="html=1;shadow=0;dashed=0;align=center;verticalAlign=middle;shape=mxgraph.arrows2.arrow;dy=0.64;dx=28;flipH=1;notch=0;sketch=1;curveFitting=1;jiggle=2;rotation=-45;" vertex="1" parent="1">
          <mxGeometry x="215.86" y="464.14" width="171" height="40" as="geometry" />
        </mxCell>
        <mxCell id="txd-k2RUHVKIXWnAUGUS-44" value="" style="html=1;shadow=0;dashed=0;align=center;verticalAlign=middle;shape=mxgraph.arrows2.arrow;dy=0.59;dx=14;direction=south;notch=0;sketch=1;curveFitting=1;jiggle=2;" vertex="1" parent="1">
          <mxGeometry x="140" y="446" width="24.5" height="62" as="geometry" />
        </mxCell>
        <mxCell id="txd-k2RUHVKIXWnAUGUS-46" value="" style="strokeWidth=2;html=1;shape=mxgraph.flowchart.annotation_1;align=left;pointerEvents=1;sketch=1;curveFitting=1;jiggle=2;" vertex="1" parent="1">
          <mxGeometry x="38.5" y="547.5" width="11" height="30" as="geometry" />
        </mxCell>
        <mxCell id="txd-k2RUHVKIXWnAUGUS-47" value="q2" style="rounded=0;whiteSpace=wrap;html=1;sketch=1;curveFitting=1;jiggle=2;" vertex="1" parent="1">
          <mxGeometry x="49.5" y="537.5" width="61" height="17.5" as="geometry" />
        </mxCell>
        <mxCell id="txd-k2RUHVKIXWnAUGUS-48" value="a2" style="rounded=0;whiteSpace=wrap;html=1;sketch=1;curveFitting=1;jiggle=2;" vertex="1" parent="1">
          <mxGeometry x="50.5" y="570" width="61" height="15" as="geometry" />
        </mxCell>
        <mxCell id="txd-k2RUHVKIXWnAUGUS-49" value="" style="strokeWidth=2;html=1;shape=mxgraph.flowchart.annotation_1;align=left;pointerEvents=1;sketch=1;curveFitting=1;jiggle=2;" vertex="1" parent="1">
          <mxGeometry x="38.5" y="607.5" width="11" height="30" as="geometry" />
        </mxCell>
        <mxCell id="txd-k2RUHVKIXWnAUGUS-50" value="q4" style="rounded=0;whiteSpace=wrap;html=1;sketch=1;curveFitting=1;jiggle=2;" vertex="1" parent="1">
          <mxGeometry x="49.5" y="597.5" width="61" height="17.5" as="geometry" />
        </mxCell>
        <mxCell id="txd-k2RUHVKIXWnAUGUS-51" value="a4" style="rounded=0;whiteSpace=wrap;html=1;sketch=1;curveFitting=1;jiggle=2;" vertex="1" parent="1">
          <mxGeometry x="50.5" y="630" width="61" height="15" as="geometry" />
        </mxCell>
        <mxCell id="txd-k2RUHVKIXWnAUGUS-52" value="" style="strokeWidth=2;html=1;shape=mxgraph.flowchart.annotation_1;align=left;pointerEvents=1;sketch=1;curveFitting=1;jiggle=2;" vertex="1" parent="1">
          <mxGeometry x="129.5" y="542.5" width="11" height="30" as="geometry" />
        </mxCell>
        <mxCell id="txd-k2RUHVKIXWnAUGUS-53" value="q3" style="rounded=0;whiteSpace=wrap;html=1;sketch=1;curveFitting=1;jiggle=2;" vertex="1" parent="1">
          <mxGeometry x="140.5" y="532.5" width="61" height="17.5" as="geometry" />
        </mxCell>
        <mxCell id="txd-k2RUHVKIXWnAUGUS-54" value="a3" style="rounded=0;whiteSpace=wrap;html=1;sketch=1;curveFitting=1;jiggle=2;" vertex="1" parent="1">
          <mxGeometry x="141.5" y="565" width="61" height="15" as="geometry" />
        </mxCell>
        <mxCell id="txd-k2RUHVKIXWnAUGUS-55" value="" style="strokeWidth=2;html=1;shape=mxgraph.flowchart.annotation_1;align=left;pointerEvents=1;sketch=1;curveFitting=1;jiggle=2;" vertex="1" parent="1">
          <mxGeometry x="134.5" y="608.75" width="11" height="30" as="geometry" />
        </mxCell>
        <mxCell id="txd-k2RUHVKIXWnAUGUS-56" value="q5" style="rounded=0;whiteSpace=wrap;html=1;sketch=1;curveFitting=1;jiggle=2;" vertex="1" parent="1">
          <mxGeometry x="145.5" y="598.75" width="61" height="17.5" as="geometry" />
        </mxCell>
        <mxCell id="txd-k2RUHVKIXWnAUGUS-57" value="a5" style="rounded=0;whiteSpace=wrap;html=1;sketch=1;curveFitting=1;jiggle=2;" vertex="1" parent="1">
          <mxGeometry x="146.5" y="631.25" width="61" height="15" as="geometry" />
        </mxCell>
        <mxCell id="txd-k2RUHVKIXWnAUGUS-58" value="" style="strokeWidth=2;html=1;shape=mxgraph.flowchart.annotation_1;align=left;pointerEvents=1;sketch=1;curveFitting=1;jiggle=2;" vertex="1" parent="1">
          <mxGeometry x="-49.5" y="580" width="11" height="30" as="geometry" />
        </mxCell>
        <mxCell id="txd-k2RUHVKIXWnAUGUS-59" value="q1" style="rounded=0;whiteSpace=wrap;html=1;sketch=1;curveFitting=1;jiggle=2;" vertex="1" parent="1">
          <mxGeometry x="-38.5" y="570" width="61" height="17.5" as="geometry" />
        </mxCell>
        <mxCell id="txd-k2RUHVKIXWnAUGUS-60" value="a1" style="rounded=0;whiteSpace=wrap;html=1;sketch=1;curveFitting=1;jiggle=2;" vertex="1" parent="1">
          <mxGeometry x="-37.5" y="602.5" width="61" height="15" as="geometry" />
        </mxCell>
      </root>
    </mxGraphModel>
  </diagram>
</mxfile>
